<?xml version="1.0" encoding="utf-8"?>
<!-- Generator: Adobe Illustrator 24.1.2, SVG Export Plug-In . SVG Version: 6.00 Build 0)  -->
<svg version="1.1" id="art" xmlns="http://www.w3.org/2000/svg" xmlns:xlink="http://www.w3.org/1999/xlink" x="0px" y="0px"
	 viewBox="0 0 1000 1000" style="enable-background:new 0 0 1000 1000;" xml:space="preserve">
<style type="text/css">
	.st0{fill:#39B54A;}
	.st1{fill:#009444;}
	.st2{fill:#FFFFFF;}
	.st3{fill:#FF4438;}
	.st4{fill:#C82100;}
	.st5{fill:#231F20;}
</style>
<g>
	<g>
		<g>
			<rect x="147.9" y="333.5" class="st0" width="37" height="37"/>
			<polygon class="st0" points="407.4,185.5 370.4,185.5 333.2,185.5 333.2,222.5 296.2,222.5 296.2,259.5 259.1,259.5 222.1,259.5 
				222.1,296.5 184.9,296.5 184.9,333.5 222.1,333.5 259.1,333.5 259.1,296.5 296.2,296.5 333.2,296.5 333.2,259.5 370.4,259.5 
				407.4,259.5 407.4,222.5 444.5,222.5 444.5,185.5 			"/>
		</g>
		<g>
			<polygon class="st1" points="184.9,333.5 184.9,370.5 222.1,370.5 259.1,370.5 259.1,333.5 222.1,333.5 			"/>
			<polygon class="st1" points="259.1,296.5 259.1,333.5 296.2,333.5 333.2,333.5 333.2,296.5 296.2,296.5 			"/>
			<polygon class="st1" points="333.2,259.5 333.2,296.5 370.4,296.5 407.4,296.5 407.4,259.5 370.4,259.5 			"/>
			<polygon class="st1" points="444.5,222.5 407.4,222.5 407.4,259.5 444.5,259.5 481.5,259.5 481.5,222.5 			"/>
		</g>
		<g>
			<polygon class="st2" points="296.2,703.5 296.2,740.3 333.2,740.3 333.2,703.5 333.2,666.5 296.2,666.5 			"/>
			<rect x="333.2" y="629.5" class="st2" width="37.1" height="37"/>
			<polygon class="st2" points="666.8,703.5 666.8,740.3 703.9,740.3 703.9,703.5 703.9,666.5 666.8,666.5 			"/>
			<rect x="703.9" y="629.5" class="st2" width="37" height="37"/>
		</g>
		<g>
			<path class="st3" d="M370.4,592.5h-37.1h-37v37h-37.1v37v37v36.8v37h37.1h37h37.1v-37h37v-36.8h37.1v-37v-37v-37h-37.1H370.4z
				 M296.2,740.3v-36.8v-37h37v-37h37.1v37h-37.1v37v36.8H296.2z"/>
			<path class="st3" d="M778.1,592.5h-37.1h-37h-37.1v37h-37v37v37v36.8v37h37h37.1h37v-37h37.1v-36.8h37v-37v-37v-37H778.1z
				 M666.8,740.3v-36.8v-37h37.1v-37h37v37h-37v37v36.8H666.8z"/>
		</g>
		<g>
			<polygon class="st4" points="444.5,666.5 444.5,703.5 407.4,703.5 407.4,740.3 370.4,740.3 370.4,777.3 333.2,777.3 296.2,777.3 
				296.2,814.3 333.2,814.3 370.4,814.3 407.4,814.3 444.5,814.3 444.5,777.3 481.5,777.3 481.5,740.3 481.5,703.5 481.5,666.5 
				481.5,629.5 444.5,629.5 			"/>
			<polygon class="st4" points="815.1,629.5 815.1,666.5 815.1,703.5 778.1,703.5 778.1,740.3 740.9,740.3 740.9,777.3 703.9,777.3 
				666.8,777.3 666.8,814.3 703.9,814.3 740.9,814.3 778.1,814.3 815.1,814.3 815.1,777.3 852.1,777.3 852.1,740.3 852.1,703.5 
				852.1,666.5 852.1,629.5 			"/>
		</g>
		<g>
			<rect x="110.8" y="333.5" class="st5" width="37.1" height="37"/>
			<rect x="147.9" y="296.5" class="st5" width="37" height="37"/>
			<polygon class="st5" points="184.9,370.5 147.9,370.5 147.9,407.5 184.9,407.5 222.1,407.5 259.1,407.5 259.1,370.5 222.1,370.5 
							"/>
			<rect x="184.9" y="259.5" class="st5" width="37.1" height="37"/>
			<polygon class="st5" points="259.1,703.5 259.1,666.5 259.1,629.5 222.1,629.5 222.1,666.5 222.1,703.5 222.1,740.3 222.1,777.3 
				259.1,777.3 259.1,740.3 			"/>
			<rect x="259.1" y="777.3" class="st5" width="37.1" height="37"/>
			<rect x="259.1" y="592.5" class="st5" width="37.1" height="37"/>
			<polygon class="st5" points="259.1,333.5 259.1,370.5 296.2,370.5 333.2,370.5 333.2,333.5 296.2,333.5 			"/>
			<polygon class="st5" points="296.2,259.5 296.2,222.5 259.1,222.5 222.1,222.5 222.1,259.5 259.1,259.5 			"/>
			<rect x="296.2" y="185.5" class="st5" width="37" height="37"/>
			<polygon class="st5" points="333.2,518.5 333.2,555.5 296.2,555.5 296.2,592.5 333.2,592.5 370.4,592.5 407.4,592.5 444.5,592.5 
				444.5,555.5 407.4,555.5 370.4,555.5 370.4,518.5 370.4,481.5 333.2,481.5 			"/>
			<polygon class="st5" points="333.2,296.5 333.2,333.5 370.4,333.5 407.4,333.5 407.4,296.5 370.4,296.5 			"/>
			<polygon class="st5" points="370.4,814.3 333.2,814.3 296.2,814.3 296.2,851.3 333.2,851.3 370.4,851.3 407.4,851.3 444.5,851.3 
				444.5,814.3 407.4,814.3 			"/>
			<polygon class="st5" points="370.4,444.5 370.4,481.5 407.4,481.5 407.4,444.5 407.4,407.5 370.4,407.5 			"/>
			<polygon class="st5" points="407.4,185.5 444.5,185.5 444.5,148.7 407.4,148.7 370.4,148.7 333.2,148.7 333.2,185.5 370.4,185.5 
							"/>
			<rect x="407.4" y="370.5" class="st5" width="37.1" height="37"/>
			<rect x="444.5" y="777.3" class="st5" width="37" height="37"/>
			<rect x="444.5" y="592.5" class="st5" width="37" height="37"/>
			<rect x="444.5" y="333.5" class="st5" width="37" height="37"/>
			<rect x="444.5" y="185.5" class="st5" width="37" height="37"/>
			<polygon class="st5" points="481.5,703.5 481.5,740.3 481.5,777.3 518.5,777.3 518.5,740.3 518.5,703.5 518.5,666.5 518.5,629.5 
				481.5,629.5 481.5,666.5 			"/>
			<polygon class="st5" points="518.5,296.5 518.5,259.5 518.5,222.5 481.5,222.5 481.5,259.5 444.5,259.5 407.4,259.5 407.4,296.5 
				444.5,296.5 481.5,296.5 481.5,333.5 518.5,333.5 555.6,333.5 555.6,296.5 			"/>
			<rect x="555.6" y="333.5" class="st5" width="37" height="37"/>
			<polygon class="st5" points="629.8,703.5 629.8,666.5 629.8,629.5 592.6,629.5 592.6,666.5 592.6,703.5 592.6,740.3 592.6,777.3 
				629.8,777.3 629.8,740.3 			"/>
			<rect x="592.6" y="370.5" class="st5" width="37.1" height="37"/>
			<rect x="629.8" y="777.3" class="st5" width="37" height="37"/>
			<rect x="629.8" y="592.5" class="st5" width="37" height="37"/>
			<rect x="629.8" y="407.5" class="st5" width="37" height="37"/>
			<rect x="666.8" y="444.5" class="st5" width="37.1" height="37"/>
			<polygon class="st5" points="740.9,592.5 778.1,592.5 815.1,592.5 815.1,555.5 778.1,555.5 740.9,555.5 740.9,518.5 740.9,481.5 
				703.9,481.5 703.9,518.5 703.9,555.5 666.8,555.5 666.8,592.5 703.9,592.5 			"/>
			<polygon class="st5" points="740.9,814.3 703.9,814.3 666.8,814.3 666.8,851.3 703.9,851.3 740.9,851.3 778.1,851.3 815.1,851.3 
				815.1,814.3 778.1,814.3 			"/>
			<rect x="815.1" y="777.3" class="st5" width="37" height="37"/>
			<rect x="815.1" y="592.5" class="st5" width="37" height="37"/>
			<polygon class="st5" points="852.1,629.5 852.1,666.5 852.1,703.5 852.1,740.3 852.1,777.3 889.2,777.3 889.2,740.3 889.2,703.5 
				889.2,666.5 889.2,629.5 			"/>
		</g>
	</g>
</g>
</svg>
