<svg id="Layer_1" data-name="Layer 1" xmlns="http://www.w3.org/2000/svg" viewBox="0 0 450 450"><defs><style>.cls-1{fill:#fff;}.cls-2{fill:#c72127;}</style></defs><title>Deadpool</title><path d="M192.58,68.85h0a152.91,152.91,0,0,0-19.55,5l-.1,0q-1.51.5-3,1l-.23.08q-1.48.53-3,1.08l-.18.07a153.64,153.64,0,0,0-20.73,9.68l-.3.17q-1.28.72-2.55,1.47l-.4.23q-1.25.74-2.49,1.51l-.34.21q-1.28.8-2.54,1.62l-.08,0a155.1,155.1,0,0,0-12.91,9.39l-.44.35q-1,.84-2.05,1.7l-.59.5-1.94,1.68-.64.57q-.95.85-1.89,1.71l-.6.56q-1,.89-1.9,1.79l-.42.41q-4.29,4.16-8.25,8.64l-.58.65c-.51.58-1,1.18-1.52,1.77l-.75.88-1.4,1.71-.8,1-1.33,1.69-.81,1.05L97,128.85l-.79,1.08c-.42.57-.84,1.15-1.25,1.73l-.73,1.05c-.42.6-.84,1.2-1.25,1.81l-.28.43q-1.34,2-2.61,4l-.75,1.2c-.33.55-.66,1.1-1,1.65l-.81,1.38c-.31.54-.62,1.08-.92,1.62l-.81,1.45L85,147.91l-.8,1.51-.82,1.6-.78,1.58c-.26.53-.52,1.05-.77,1.58s-.52,1.11-.78,1.67-.47,1-.71,1.53-.55,1.26-.83,1.89c-.2.45-.4.9-.59,1.35q-.67,1.58-1.3,3.18c-.16.42-.32.84-.48,1.25-.27.69-.53,1.38-.79,2.08-.18.48-.35,1-.52,1.45-.23.64-.46,1.28-.68,1.93s-.34,1-.5,1.51-.42,1.27-.62,1.91-.32,1-.47,1.53-.39,1.29-.58,1.94-.29,1-.43,1.52c-.19.67-.37,1.34-.55,2-.13.49-.26,1-.39,1.48-.18.72-.36,1.45-.53,2.17-.11.45-.22.89-.32,1.34-.21.93-.41,1.86-.61,2.79-.05.25-.11.5-.16.75q-.36,1.77-.68,3.55c-.07.37-.13.74-.19,1.11-.14.83-.28,1.66-.41,2.5-.07.47-.14.93-.21,1.4-.11.75-.22,1.49-.31,2.24-.07.5-.13,1-.19,1.5q-.13,1.09-.25,2.18-.08.76-.16,1.53-.11,1.1-.2,2.2c0,.51-.08,1-.12,1.52-.05.76-.1,1.52-.14,2.28,0,.48-.06,1-.08,1.45,0,.84-.07,1.68-.1,2.52,0,.41,0,.82,0,1.23q0,1.88,0,3.76t0,3.76c0,.41,0,.82,0,1.23,0,.84.06,1.68.1,2.52,0,.48.05,1,.08,1.45,0,.76.09,1.52.14,2.28,0,.51.08,1,.12,1.52q.09,1.1.2,2.2.07.77.16,1.53.12,1.09.25,2.18c.06.5.12,1,.19,1.5.1.75.21,1.5.31,2.24.07.47.13.93.21,1.4.13.83.27,1.67.41,2.5.06.37.12.74.19,1.11q.32,1.78.68,3.55c.05.25.11.5.16.75.2.93.4,1.87.61,2.79.1.45.21.89.32,1.34.17.73.35,1.45.53,2.18.13.49.26,1,.39,1.48.18.67.36,1.34.55,2q.21.76.43,1.52.28,1,.58,1.94.23.77.47,1.53.3,1,.62,1.91c.17.5.33,1,.5,1.51s.45,1.29.68,1.93c.17.48.34,1,.52,1.45.26.7.52,1.39.79,2.08.16.42.32.84.48,1.26q.63,1.6,1.3,3.18c.19.45.39.89.58,1.34.28.63.55,1.27.83,1.9s.47,1,.7,1.53.52,1.12.78,1.67.51,1.06.77,1.58l.78,1.58.82,1.6L85,293l.87,1.61.81,1.45c.31.54.61,1.08.92,1.62l.82,1.38c.33.55.65,1.1,1,1.65l.75,1.19q1.27,2,2.6,4l.3.45c.41.61.83,1.21,1.24,1.81l.73,1.05c.41.58.83,1.16,1.25,1.73L97,312l1.28,1.7.81,1.05,1.33,1.69.8,1,1.41,1.71.74.88c.5.59,1,1.18,1.52,1.77l.58.66q4,4.47,8.24,8.63l.42.41q.94.91,1.9,1.79l.6.56q.94.86,1.89,1.71l.64.57,1.94,1.68.59.5q1,.86,2.05,1.71l.44.35a155.11,155.11,0,0,0,12.91,9.39l.08,0q1.26.82,2.54,1.62l.34.21q1.24.77,2.5,1.51l.39.23q1.27.75,2.55,1.47l.31.17a153.63,153.63,0,0,0,20.72,9.68l.18.07q1.47.55,3,1.08l.24.08q1.5.53,3,1l.1,0a152.91,152.91,0,0,0,19.56,5Z"/><path d="M375.2,215.44c0-.84-.06-1.68-.1-2.52,0-.49-.05-1-.08-1.45,0-.76-.09-1.52-.14-2.28,0-.51-.08-1-.12-1.53q-.09-1.1-.2-2.2-.07-.77-.16-1.54-.12-1.09-.25-2.17c-.06-.5-.12-1-.19-1.51-.1-.74-.2-1.48-.31-2.22-.07-.48-.14-1-.21-1.43-.13-.81-.26-1.61-.4-2.42-.07-.4-.13-.8-.2-1.19q-.32-1.79-.69-3.57l-.05-.23q-.34-1.66-.72-3.31c-.1-.41-.2-.82-.3-1.24-.18-.76-.36-1.52-.56-2.28-.12-.48-.25-.95-.38-1.42-.18-.69-.37-1.38-.56-2.07-.14-.49-.28-1-.42-1.48q-.29-1-.59-2l-.47-1.49q-.31-1-.63-2c-.16-.49-.33-1-.5-1.47-.23-.66-.46-1.31-.69-2-.17-.47-.34-.94-.51-1.41-.26-.7-.53-1.39-.79-2.09-.16-.42-.32-.84-.48-1.25q-.59-1.48-1.2-2.94l-.43-1c-.36-.85-.73-1.7-1.11-2.54-.2-.44-.41-.88-.61-1.32-.29-.63-.58-1.27-.89-1.89l-.7-1.43c-.29-.58-.57-1.16-.87-1.74l-.76-1.47-.88-1.67-.8-1.47-.91-1.62-.84-1.47-.94-1.6-.86-1.44c-.33-.54-.67-1.08-1-1.62s-.57-.92-.86-1.37c-.41-.64-.83-1.26-1.25-1.89s-1-1.46-1.48-2.18c-.37-.54-.74-1.08-1.12-1.62l-1-1.43-1-1.4-1.1-1.45-1-1.33-1.15-1.45-1-1.27-1.19-1.45-1-1.22L337.16,119l-1-1.16-1.3-1.45-1-1.07c-.46-.5-.93-1-1.4-1.49l-.59-.61q-1.67-1.72-3.39-3.39l-.76-.74-1.56-1.47-1-.91-1.56-1.4-1-.91L321,103.06l-1-.89-1.62-1.34-1-.84-1.69-1.34-1-.75-1.8-1.36L312,96q-3.54-2.59-7.23-5l-.27-.18c-.7-.45-1.4-.89-2.1-1.33l-.85-.53-2-1.21-1-.58-2-1.14-1-.57-2-1.1-1-.53-2.1-1.08-.91-.45-2.23-1.09-.61-.29q-5.47-2.58-11.17-4.74l-.76-.29L272.38,75l-1-.34-2.31-.78-1-.33-2.32-.72-1-.31-2.38-.69-.92-.25-2.53-.67-.55-.13q-4.7-1.17-9.51-2.06h0V372.17q4.81-.88,9.52-2.06l.55-.13,2.52-.67.92-.25,2.37-.68,1-.31,2.31-.72,1-.34,2.3-.77,1-.34,2.35-.85.76-.29q5.7-2.16,11.18-4.75l.6-.28,2.23-1.09.92-.46,2.09-1.08,1-.54,2-1.1,1-.57,2-1.14,1-.58,2-1.21.85-.53c.7-.44,1.41-.88,2.1-1.33l.27-.18q3.68-2.39,7.21-5l.81-.59,1.79-1.36,1-.76,1.68-1.33,1-.84,1.62-1.34,1.05-.89,1.58-1.36,1-.91,1.56-1.4,1-.91,1.56-1.47.76-.74q1.72-1.67,3.39-3.39l.59-.61c.47-.49.93-1,1.39-1.48l1-1.08,1.29-1.44,1-1.17,1.24-1.44,1-1.23,1.19-1.45,1-1.27L342.8,315l1-1.33,1.1-1.45,1-1.4,1-1.43c.38-.54.75-1.08,1.13-1.63q.74-1.07,1.46-2.15c.42-.63.84-1.27,1.26-1.91.29-.45.58-.91.86-1.37s.68-1.08,1-1.62l.86-1.43.95-1.6.84-1.46.91-1.62.8-1.47.88-1.67.76-1.47c.29-.58.58-1.16.87-1.74l.7-1.43c.3-.63.59-1.26.89-1.9.2-.44.41-.87.61-1.31.38-.85.75-1.7,1.12-2.55l.42-1q.62-1.47,1.21-3c.16-.41.32-.83.48-1.25.27-.69.54-1.39.8-2.09.17-.47.34-.94.51-1.41.23-.65.47-1.31.69-2,.17-.49.33-1,.5-1.47q.32-1,.63-2l.47-1.49q.3-1,.59-2c.14-.49.29-1,.42-1.48.19-.69.38-1.38.56-2.07.13-.47.25-.95.38-1.42.19-.76.38-1.52.56-2.28.1-.41.2-.82.3-1.23q.38-1.65.72-3.32l0-.23q.36-1.78.69-3.57c.07-.4.13-.79.2-1.19.14-.81.28-1.61.4-2.42.07-.47.14-1,.21-1.43.11-.74.21-1.48.31-2.22.07-.5.13-1,.19-1.51q.13-1.09.25-2.17.08-.77.16-1.54.11-1.1.2-2.2c0-.51.08-1,.12-1.53.05-.76.1-1.52.14-2.28,0-.48.06-1,.08-1.45,0-.84.07-1.68.1-2.52,0-.41,0-.82,0-1.23q0-1.88,0-3.77t0-3.77C375.23,216.26,375.21,215.85,375.2,215.44Z"/><path class="cls-1" d="M272,247.74l60.29-40.86S323.71,281.23,272,247.74Z"/><path class="cls-1" d="M167.13,247.74l-60.29-40.86S115.37,281.23,167.13,247.74Z"/><path class="cls-2" d="M221.05,26C113.84,26,26.62,113.23,26.62,220.44s87.22,194.43,194.43,194.43,194.43-87.22,194.43-194.43S328.26,26,221.05,26ZM66.81,220.44c0-75.32,54.27-138.2,125.76-151.59V372C121.09,358.64,66.81,295.76,66.81,220.44Zm182,151.72V68.72c71.83,13.13,126.44,76.16,126.44,151.72S320.67,359,248.85,372.17Z"/></svg>