<?xml version="1.0" encoding="UTF-8" standalone="no"?>
<svg
   xmlns:dc="http://purl.org/dc/elements/1.1/"
   xmlns:cc="http://creativecommons.org/ns#"
   xmlns:rdf="http://www.w3.org/1999/02/22-rdf-syntax-ns#"
   xmlns:svg="http://www.w3.org/2000/svg"
   xmlns="http://www.w3.org/2000/svg"
   viewBox="0 0 245 512"
   height="512"
   width="245"
   id="svg10"
   version="1.1">
  <metadata
     id="metadata16">
    <rdf:RDF>
      <cc:Work
         rdf:about="">
        <dc:format>image/svg+xml</dc:format>
        <dc:type
           rdf:resource="http://purl.org/dc/dcmitype/StillImage" />
        <dc:title></dc:title>
      </cc:Work>
    </rdf:RDF>
  </metadata>
  <defs
     id="defs14" />
  <path
     id="path22"
     d="M 51.975239,510.52053 C 31.005029,506.71528 19.210879,497.91634 10.136649,479.30716 3.852239,466.41926 -0.15112099,442.73674 0.95642901,425 2.182959,405.3579 5.187959,394.79066 27.118469,333 c 12.95431,-36.49962 16.61988,-47.85379 21.08031,-65.29659 2.6903,-10.52061 2.71663,-10.88938 1.02985,-14.42659 -2.35975,-4.94845 -3.08677,-12.25662 -1.65182,-16.60456 0.65402,-1.98169 3.13634,-5.76884 5.51626,-8.41589 4.32085,-4.80582 4.33022,-4.83312 6.44865,-18.78459 1.16682,-7.68448 2.7756,-19.31532 3.57506,-25.84631 0.79945,-6.53099 3.70102,-23.18099 6.44791,-37 2.7469,-13.81901 6.83472,-35.92547 9.08403,-49.12547 8.07435,-47.383945 14.56325,-63.219123 33.261841,-81.170519 16.84053,-16.16757727 32.99039,-19.6122957 62.23887,-13.2753706 18.98369,4.1129741 30.93414,10.4700326 42.34045,22.5230616 15.91113,16.813274 25.01813,39.520611 28.23599,70.403475 2.28063,21.887943 -0.0979,88.906993 -4.06433,114.519353 -0.51105,3.3 -1.63507,14.775 -2.49781,25.5 -2.03206,25.26092 -2.89179,31.48052 -7.52372,54.42914 -7.61055,37.7061 -11.16256,52.89582 -14.68663,62.80553 -3.5537,9.99302 -3.57203,10.12834 -2.29145,16.91514 2.09861,11.12223 -0.7421,17.79912 -10.2761,24.15325 -4.78234,3.18728 -5.64672,4.38137 -9.66287,13.34867 -11.4059,25.46722 -22.32722,46.54092 -28.06749,54.15883 -14.28795,18.96155 -40.60479,37.83984 -62.35087,44.72718 -16.760321,5.30827 -35.858431,6.79015 -51.329361,3.98279 z m 30.33607,-10.59007 c 21.359101,-2.92042 44.060761,-14.66907 63.514841,-32.87047 9.33905,-8.73769 15.26209,-16.95962 22.19893,-30.81492 7.00138,-13.98422 17.60858,-37.13907 17.60858,-38.43843 0,-0.63204 -0.69634,-1.91861 -1.54743,-2.85904 -1.39803,-1.54482 -1.39113,-1.86618 0.0714,-3.32875 0.89037,-0.89037 3.04921,-1.62873 4.79743,-1.64081 4.03865,-0.0279 10.55145,-3.01187 13.3054,-6.09612 4.98503,-5.58294 4.97995,-12.75807 -0.0151,-21.28145 -3.11595,-5.31696 -3.27579,-7.19356 -0.67073,-7.8748 3.92089,-1.02533 7.33519,-13.37803 17.00652,-61.52843 4.9914,-24.8505 6.43862,-34.40317 8.04344,-53.09224 1.07631,-12.53422 2.85622,-30.04689 3.95535,-38.91704 1.09914,-8.87015 2.54736,-30.23086 3.21827,-47.46826 C 236.12044,94.057344 232.7325,70.665247 218.1716,45.825063 206.3941,25.733234 188.1739,15.267449 159.16506,11.931379 140.97318,9.8392786 130.43039,13.213233 118.69729,24.882078 102.36504,41.124881 97.297539,54.307582 89.193319,101.63423 c -2.46138,14.37382 -6.25992,35.07382 -8.44119,46 -2.18128,10.92617 -5.14837,28.86577 -6.59355,39.86577 -1.44518,11 -3.02398,22.475 -3.50843,25.5 -0.85757,5.35471 -0.80085,5.56742 2.14682,8.05216 2.15699,1.81824 2.9283,3.24954 2.68217,4.97722 -0.29783,2.09064 -1.31077,2.67204 -7.34548,4.21615 -5.30301,1.35689 -7.75312,2.59366 -10.10659,5.10162 -6.28963,6.70249 -4.96556,15.19583 3.29549,21.13918 4.7554,3.42123 5.31715,5.18067 2.05063,6.4226 -1.92685,0.73259 -2.9741,3.42254 -7.09545,18.22525 -2.65922,9.5512 -8.67496,28.16582 -13.3683,41.36582 -30.35272,85.36692 -30.9073,87.4884 -29.98693,114.71115 0.63486,18.77775 2.0706,25.72257 7.74531,37.46468 7.05688,14.6021 16.61709,21.87962 32.46584,24.71399 9.88238,1.76735 18.97378,1.9358 29.17765,0.54064 z m -51.71542,-19.82085 c -3.12666,-2.61026 -3.46223,-3.38916 -3.46223,-8.03648 0,-5.48215 1.32967,-7.29816 5,-6.82886 1.73863,0.22231 1.95972,0.88661 1.69179,5.08312 -0.3716,5.82001 0.69574,7.30886 5.86578,8.18234 4.57477,0.7729 4.96473,1.70345 1.39538,3.32975 -4.02319,1.83309 -6.76428,1.3811 -10.49072,-1.72987 z m 83.537771,-11.77709 c -4.84939,-1.30691 -7.02104,-5.82528 -4.00345,-8.32966 1.1547,-0.95831 2.51221,-0.98628 5.94282,-0.12244 6.76667,1.70386 8.93429,1.38278 11.9558,-1.771 2.33511,-2.43733 2.72491,-3.61315 2.48596,-7.49887 -0.33001,-5.36644 1.08207,-7.56475 3.21125,-4.99924 0.85174,1.02629 1.40762,3.97586 1.40762,7.46905 0,6.18941 -1.66269,9.45874 -6.7373,13.24749 -2.62806,1.96213 -10.37846,3.05148 -14.2627,2.00467 z m -86.169841,-8.12444 c -6.94979,-3.74492 -10.067,-12.41536 -7.38513,-20.54151 1.09846,-3.32837 7.01163,-9.66657 9.01834,-9.66657 1.13764,0 4.03663,2.86998 4.03663,3.99624 0,0.46936 -1.90227,2.66339 -4.22727,4.87563 -3.55284,3.38052 -4.22727,4.64153 -4.22727,7.90385 0,5.10866 2.74801,9.10764 7.55657,10.99649 2.14388,0.84214 3.89797,2.13791 3.89797,2.87948 0,1.88508 -4.8045,1.63925 -8.66984,-0.44361 z M 138.38366,437.9199 c -2.18168,-1.27071 -2.2943,-5.49706 -0.16821,-6.31291 0.86998,-0.33385 2.64446,-0.60699 3.94329,-0.60699 3.6218,0 5.48478,-3.35791 4.19483,-7.56094 -1.41227,-4.60161 -0.10017,-5.57854 2.86516,-2.1333 4.65422,5.40747 2.5843,13.47204 -4.18364,16.29987 -3.91918,1.63754 -4.34497,1.65766 -6.65143,0.31427 z M 74.396629,374.65613 c -5.00609,-4.63949 -4.82544,-11.74289 0.41068,-16.14879 3.93434,-3.31052 9.15562,-3.20732 9.63907,0.19052 0.23459,1.64876 -0.7023,2.83862 -3.75,4.76255 -3.19042,2.01403 -4.06272,3.17283 -4.06272,5.39715 0,1.55785 0.88939,3.63735 1.97642,4.6211 2.04776,1.85319 1.86328,3.52134 -0.38941,3.52134 -0.71223,0 -2.43305,-1.05474 -3.82404,-2.34387 z m -10.1902,-29.69583 c -5.58489,-5.14796 -7.57277,-9.39136 -7.57277,-16.16508 0,-6.6065 3.74121,-14.75742 8.35339,-18.19942 7.34572,-5.482 15.12758,-5.43363 14.45655,0.0899 -0.25028,2.06012 -1.31198,2.92361 -5.51608,4.48627 -13.70804,5.09528 -15.87954,21.3587 -3.84492,28.79651 4.1763,2.5811 4.67731,5.03156 1.02872,5.03156 -1.55695,0 -4.19971,-1.54614 -6.90489,-4.0397 z m 20.35031,-42.88338 c -3.92001,-3.92001 -3.98696,-8.68781 -0.17308,-12.32621 5.18794,-4.94924 11.4682,-6.07206 15.38922,-2.75138 2.316731,1.96203 2.324561,2.02734 0.419651,3.5 C 99.124909,291.3247 96.762409,292 94.942529,292 c -3.03281,0 -7.31492,2.78435 -7.30513,4.75 0.002,0.4125 0.90206,2.22338 2,4.02417 2.47737,4.06326 2.47427,4.22583 -0.0807,4.22583 -1.14231,0 -3.39231,-1.31538 -5,-2.92308 z m 110.682291,-30.6144 c -2.75335,-2.75336 -1.89899,-4.92134 2.84832,-7.22776 8.70552,-4.22947 9.82252,-11.46413 2.76771,-17.92609 -2.7115,-2.48363 -3.33108,-3.59899 -2.47484,-4.45523 1.99262,-1.99262 7.23211,1.04346 10.38766,6.01926 3.5463,5.59193 3.74248,11.02141 0.59877,16.57157 -3.41012,6.02051 -11.23711,9.90876 -14.12762,7.01825 z m -5.85537,-89.02541 c -1.50472,-1.54574 -0.66268,-2.38304 3.5,-3.48029 8.88627,-2.34235 16.36844,-8.43604 19.48163,-15.86639 2.04447,-4.87958 1.76285,-14.18414 -0.5903,-19.50384 -1.07971,-2.44086 -3.82413,-6.45689 -6.0987,-8.92452 -4.46096,-4.83957 -4.02864,-6.74044 0.94772,-4.16706 5.95169,3.07774 11.76474,12.86843 12.64591,21.29901 1.18631,11.35004 -4.22047,21.94781 -14.17306,27.78041 -4.36633,2.55885 -14.25519,4.36042 -15.7132,2.86268 z m -41.0337,-7.47928 c -25.35317,-5.46454 -34.85359,-11.53908 -42.74488,-27.33094 -4.55899,-9.12334 -3.596,-17.63064 2.54226,-22.45899 5.39601,-4.2445 10.83561,-2.74528 30.55984,8.42267 10.99632,6.22617 9.57001,6.11903 24.92648,1.87253 6.69991,-1.85272 23.19531,-2.08408 28.80295,-0.40399 9.2655,2.77601 15.10048,11.4307 13.75513,20.40217 -1.33532,8.90456 -10.29865,16.78636 -22.90776,20.14366 -7.32779,1.9511 -24.34161,1.63593 -34.93402,-0.64711 z m 13.77093,-2.93716 C 162.96331,170.6576 160.85066,167 159.22092,167 c -1.94582,0 -3.90707,2.72422 -3.23052,4.48727 0.64371,1.67747 5.1795,2.07212 6.13049,0.5334 z m 12.98763,0.02 c 0.84451,-1.36645 -1.61668,-4.95092 -3.89619,-5.6744 -2.15801,-0.68492 -4.57867,1.86589 -4.57867,4.82486 0,1.43917 0.80547,1.80887 3.94098,1.80887 2.16754,0 4.20779,-0.4317 4.53388,-0.95932 z m -22.86713,-4.46746 c -0.72732,-2.8979 -3.62654,-3.4604 -5.59716,-1.08595 -1.67326,2.01615 -0.63415,4.27548 2.17828,4.73622 3.14952,0.51595 4.18663,-0.59134 3.41888,-3.65027 z m 38.81224,1.34442 c 1.27998,-1.19318 -1.22291,-8.34553 -4.50681,-12.87882 -3.08944,-4.26485 -8.24665,-7.04127 -13.06429,-7.03324 -4.85225,0.008 -11.03772,1.92786 -10.58523,3.28533 0.21316,0.63948 3.25226,2.18819 6.75357,3.44158 7.1997,2.57734 10.07179,4.89511 13.69137,11.0489 2.06489,3.51061 2.90291,4.16549 4.65484,3.63761 1.17512,-0.35409 2.55057,-1.0297 3.05655,-1.50136 z m -49.62171,-2.51536 c 0.42978,-2.99334 -2.11327,-4.83924 -4.73434,-3.43649 -2.51814,1.34767 -2.71543,4.71342 -0.31392,5.35532 3.10388,0.82964 4.74309,0.20658 5.04826,-1.91883 z m 0.26748,-21.43746 c 1.06384,-0.56934 1.93426,-1.8433 1.93426,-2.83101 0,-2.0498 -4.25614,-4.71156 -5.90465,-3.69273 -1.46117,0.90305 -1.39608,4.8582 0.10465,6.35893 1.45492,1.45492 1.45514,1.45493 3.86574,0.16482 z m 20.76782,-2.32104 c 0.48238,-2.52941 -0.91984,-3.69548 -3.60081,-2.9944 -2.14191,0.56013 -3.00699,3.24304 -1.5239,4.72614 1.31039,1.31039 4.76733,0.14223 5.12471,-1.73174 z m -28.99538,-6.02395 c 0.39152,-2.05272 -1.34124,-3.58048 -4.08818,-3.60452 -1.77286,-0.0155 -2.52818,3.87317 -1.04115,5.36021 1.31809,1.31809 4.7683,0.13714 5.12933,-1.75569 z m -19.83818,35.209 c -11.90877,-6.8257 -22.501441,-21.59812 -23.680791,-33.02495 -1.01108,-9.79646 4.06057,-19.42473 12.519971,-23.76855 5.4363,-2.79148 21.16082,-0.18701 21.16082,3.50489 0,0.94995 -1.4051,0.88252 -6.06386,-0.29103 -4.82412,-1.2152 -6.84092,-1.29468 -9.8646,-0.38876 -12.254511,3.67154 -16.707601,17.54373 -9.963841,31.03918 3.475031,6.95416 12.010471,16.70958 18.566501,21.22025 3.91539,2.69386 5.5315,4.89524 3.5758,4.87077 -0.4125,-0.005 -3.225,-1.42797 -6.25,-3.1618 z m 29.1233,-48.3992 c -2.42427,-3.08196 -3.58782,-9.85968 -2.81412,-16.39236 l 0.56504,-4.77089 -5.87849,-0.53304 c -12.13071,-1.09997 -20.55567,-7.297985 -23.58003,-17.347173 -1.91637,-6.367626 -1.78715,-9.318346 0.6991,-15.963446 4.4825,-11.980544 14.24724,-17.18689 27.23035,-14.518624 5.64492,1.160136 13.61728,4.673846 13.68175,6.030054 0.0148,0.311222 1.32616,2.133067 2.91415,4.048543 2.76409,3.334134 2.96852,3.409127 4.79282,1.758164 2.40968,-2.180735 11.97978,-5.501322 18.25372,-6.33359 9.26402,-1.228916 18.83495,4.216981 23.41899,13.325508 6.69636,13.305701 -1.53279,31.137934 -15.84776,34.341484 -10.9731,2.45567 -22.51872,-1.648 -28.34589,-10.07502 -1.49211,-2.15783 -3.23762,-3.940405 -3.8789,-3.961279 -0.64128,-0.02087 -2.64962,1.835311 -4.46297,4.124854 -2.76805,3.494945 -3.36148,5.175395 -3.69889,10.474295 -0.46011,7.2259 0.30928,11.3629 2.11325,11.3629 0.68602,0 2.76913,-2.5875 4.62913,-5.75 4.40234,-7.48518 5.96717,-9.23262 7.67941,-8.57557 2.37133,0.90996 1.58086,4.67406 -2.34396,11.16157 -3.72404,6.15563 -8.21196,10.14478 -11.42742,10.15741 -0.92258,0.004 -2.58726,-1.15008 -3.69928,-2.56379 z m 47.19106,-23.678936 c 5.42466,-3.018196 8.68564,-9.22123 8.68564,-16.521813 0,-6.861647 -2.69671,-11.919493 -8.34214,-15.646202 -3.76829,-2.487559 -4.82092,-2.705396 -11.23471,-2.324994 -14.70396,0.872092 -22.10022,9.34697 -19.42091,22.253123 2.67336,12.877492 18.02483,19.076342 30.31212,12.239886 z M 175.88366,85.804082 c -1.2375,-0.610341 -2.25,-1.637503 -2.25,-2.282582 0,-1.846204 4.4199,-5.5215 6.64014,-5.5215 2.62963,0 6.63767,4.311656 6.19174,6.660789 -0.41765,2.200126 -6.99766,2.911047 -10.58188,1.143293 z m -30.53197,7.613961 c 3.86246,-2.804818 8.28197,-11.815411 8.28197,-16.885468 0,-6.017219 -3.66435,-12.491512 -8.44738,-14.925098 -4.08814,-2.080033 -13.70224,-3.28871 -17.85956,-2.245289 -5.59137,1.403345 -11.64914,10.83534 -11.64914,18.137812 0,7.197319 3.72056,13.207238 10.45608,16.889972 4.26835,2.33378 15.44413,1.768578 19.21803,-0.971929 z M 124.38366,78.919901 c -2.49767,-1.454757 -2.16145,-4.420289 0.71482,-6.304891 2.92408,-1.915936 5.67842,-2.071771 7.33518,-0.41501 2.05662,2.05662 1.32344,4.684807 -1.75034,6.27432 -3.43311,1.775328 -3.95344,1.812131 -6.29966,0.445581 z m 56.37188,37.226779 C 179.03829,114.99645 180.15217,113 182.51118,113 c 4.5449,0 12.58839,-3.44288 17.62196,-7.54278 3.00975,-2.45147 5.70362,-4.45722 5.98639,-4.45722 0.28277,0 0.51413,1.085 0.51413,2.41111 0,5.99466 -20.71897,16.19122 -25.87812,12.73557 z m -65.62188,-7.71364 c -4.72899,-2.45064 -9.33417,-7.43196 -11.06806,-11.972076 -1.62486,-4.254629 -1.64625,-9.347645 -0.0409,-9.742053 0.98289,-0.241483 1.56147,0.737806 4.17486,7.066268 1.58142,3.829469 4.27056,6.796931 11.3199,12.491461 2.18577,1.7657 2.0829,3.72898 -0.19479,3.7172 -0.65504,-0.003 -2.54098,-0.70575 -4.19098,-1.5608 z m 88.8851,-48.385494 c -2.8132,-1.613528 -7.01112,-5.096805 -9.32872,-7.740616 -5.37327,-6.129583 -9.6064,-8.70771 -19.55638,-11.910529 -11.83633,-3.810022 -23.52799,-3.634677 -37.38952,0.560747 -5.71424,1.72951 -12.2141,4.075393 -14.44414,5.213072 l -4.05461,2.068509 -1.80587,-2.230149 c -8.52748,-10.530992 14.12909,-23.065185 39.19414,-21.683201 20.90662,1.152705 43.9864,11.465045 52.37628,23.402399 3.78838,5.390208 5.0825,15.278287 1.99755,15.262838 -1.03061,-0.0052 -4.17554,-1.329543 -6.98873,-2.94307 z"
     style="fill:#000000" />
</svg>
