<?xml version="1.0" encoding="utf-8"?>
<!-- Generator: Adobe Illustrator 24.1.0, SVG Export Plug-In . SVG Version: 6.00 Build 0)  -->
<svg version="1.1" xmlns="http://www.w3.org/2000/svg" xmlns:xlink="http://www.w3.org/1999/xlink" x="0px" y="0px"
	 viewBox="0 0 245 512" style="enable-background:new 0 0 245 512;" xml:space="preserve">
<style type="text/css">
	.st0{fill:#53C114;}
	.st1{fill:#8CDD57;}
	.st2{fill:#FFFFFF;}
	.st3{fill:#FF0606;}
</style>
<g id="Layer_2">
	<polygon class="st0" points="12.7,465.2 6.7,423.6 35.3,332.6 56.6,264.5 54.1,245.7 47.6,236.7 62,225.4 70.8,168.7 89.8,59 
		108.7,27.9 133.5,7.8 164.2,5.5 198.6,17.8 219.4,38.5 237.2,82.4 240.6,138.2 234.5,210.9 219.4,313.1 206.6,356.1 209.6,370.8 
		206.8,386.2 195.4,395.4 171.4,438.9 158.8,458.7 144.3,479.7 111.1,498.1 75.9,505.9 43.5,502.3 19.6,482.9 	"/>
</g>
<g id="Layer_6">
	<path class="st1" d="M164.2,5.5C133,17,198.3,152.4,163,290.7C132.7,409.1,40.1,485.3,59.1,504c8.7,8.5,34.8-0.5,47.2-4.9
		c8.7-3,29-10.3,44.7-29.2c18.8-22.5,20.6-49,34.8-63.1c5.2-5.1,9.4-11.3,15.1-15.9c1.7-1.4,4.5-3.6,6.4-7.6c1.9-4.1,1.9-8,1.8-10
		c-0.1-5.9-2.1-7.2-2.1-11.7c0-5.8,3.3-10,4.5-11.7c5.9-8.6,9.5-29,14-55.3c11-64.5,14-116.1,14-116.1s1.9-33.5-1.8-89.4
		c-0.7-9.9-1.9-25.7-11-42.9c-3-5.7-9.6-17.8-22.9-27.3C194,11.9,174.5,1.7,164.2,5.5z"/>
	<path class="st0" d="M195.9,267.3c1.5,1.4,9.8-2,11.7-8.7c2.4-8.3-6.8-16.6-8.4-15.9c-0.9,0.4,1.2,3.8,0.8,10
		C199.6,261.6,194.6,266.1,195.9,267.3z"/>
	<path class="st0" d="M139,433.6c0.7,1.2,4.9,0.9,7.3-1.4c4.2-3.9,1.6-12.4,0.3-12.6c-0.7-0.1-0.8,2.4-3.3,7
		C140.6,431.2,138.4,432.7,139,433.6z"/>
	<path class="st0" d="M111.6,461.5c0.1,1.7,11.7,5.3,17.9-0.6c5.1-4.9,4.2-14.3,2.5-14.8c-1.2-0.4-2.2,4.2-7.3,8.7
		C118.2,460.5,111.5,460.2,111.6,461.5z"/>
	<path class="st0" d="M192.6,180.2c-0.6-1.4,20.3-6.4,23.7-20.7c3.3-13.9-12.1-27.2-10.9-28.2c1.4-1.1,25.4,12,21.5,30.4
		C222.8,181.1,193.3,181.8,192.6,180.2z"/>
	<path class="st0" d="M162.4,98.7c4.2-1.2,10.5,16.3,21.2,15.6c3.8-0.3,6.4-2.7,7.3-1.7c1.4,1.6-4.2,8.9-8.7,13.7
		c-6.1,6.4-11,11.6-15.1,10.6C157.8,134.7,156.8,100.4,162.4,98.7z"/>
	<path class="st0" d="M158.5,70.8c7.4,1.8,15.1-11.7,25.1-8.7c3.5,1.1,4.9,3.4,5.9,2.8c2.2-1.5-1.7-16.9-13.4-24.6
		c-6.5-4.3-18.4-7.9-24.6-2.5C142.7,45.7,149.8,68.7,158.5,70.8z"/>
	<path class="st0" d="M152.1,32.3c6.7,7,18.9,7.1,22,2.5c5.1-7.5-11.2-31.7-19-29.9C149.5,6.3,143.1,22.9,152.1,32.3z"/>
	<path class="st1" d="M146.8,122.7c3.4,0.6,8.4-5.3,7.8-9.8c-0.4-2.8-2.8-3-4.2-6.4c-2.6-6.2,2.5-12.6,1.1-13.5
		c-1.2-0.8-6.5,3-8.9,8.8C139.1,110.4,142.5,122,146.8,122.7z"/>
	<path class="st1" d="M103.2,89.8c1,0.1,0.5,3.2,3.1,7.2c3.8,5.7,9.4,6,9.3,8.1c-0.1,2.9-10.7,7.3-15.2,3.3
		C94.9,103.7,101.1,89.7,103.2,89.8z"/>
</g>
<g id="Layer_3">
	<polygon class="st2" points="112,73.4 121.1,59 134.7,55.2 149.2,60.8 155.9,71.1 166.6,64.3 182.5,63 193.7,65.1 199.6,73.4 
		199.6,88.7 195.4,99.1 188.7,103.2 174.7,104.5 159.6,97.4 154.6,90.7 147.7,95.9 138.1,98.3 126.7,98.3 118.9,92.8 113.5,82.4 	
		"/>
</g>
<g id="Layer_4">
	<polygon class="st2" points="125.2,131.1 122.7,139.4 143.6,149.9 165.6,144.9 164.2,137.4 154.6,139.4 147,139.4 129.1,130.2 	"/>
	<polygon class="st2" points="131.9,160.7 131.9,168.2 144.8,173 173.6,175 178.9,172.2 173.6,165 	"/>
	<polygon class="st3" points="159.1,149 177.1,144.4 191.4,154.4 194.4,167.8 188.7,172.2 173.6,165 	"/>
</g>
<g id="Layer_5">
</g>
<g id="svg10" xmlns:cc="http://creativecommons.org/ns#" xmlns:dc="http://purl.org/dc/elements/1.1/" xmlns:rdf="http://www.w3.org/1999/02/22-rdf-syntax-ns#" xmlns:svg="http://www.w3.org/2000/svg">
	<path id="path22" d="M52,510.5c-21-3.8-32.8-12.6-41.8-31.2C3.9,466.4-0.2,442.7,1,425c1.2-19.6,4.2-30.2,26.2-92
		c13-36.5,16.6-47.9,21.1-65.3c2.7-10.5,2.7-10.9,1-14.4c-2.4-4.9-3.1-12.3-1.7-16.6c0.7-2,3.1-5.8,5.5-8.4
		c4.3-4.8,4.3-4.8,6.4-18.8c1.2-7.7,2.8-19.3,3.6-25.8c0.8-6.5,3.7-23.2,6.4-37c2.7-13.8,6.8-35.9,9.1-49.1
		c8.1-47.4,14.6-63.2,33.3-81.2c16.8-16.2,33-19.6,62.2-13.3c19,4.1,30.9,10.5,42.3,22.5c15.9,16.8,25,39.5,28.2,70.4
		c2.3,21.9-0.1,88.9-4.1,114.5c-0.5,3.3-1.6,14.8-2.5,25.5c-2,25.3-2.9,31.5-7.5,54.4c-7.6,37.7-11.2,52.9-14.7,62.8
		c-3.6,10-3.6,10.1-2.3,16.9c2.1,11.1-0.7,17.8-10.3,24.2c-4.8,3.2-5.6,4.4-9.7,13.3c-11.4,25.5-22.3,46.5-28.1,54.2
		c-14.3,19-40.6,37.8-62.4,44.7C86.5,511.8,67.4,513.3,52,510.5L52,510.5z M82.3,499.9c21.4-2.9,44.1-14.7,63.5-32.9
		c9.3-8.7,15.3-17,22.2-30.8c7-14,17.6-37.1,17.6-38.4c0-0.6-0.7-1.9-1.5-2.9c-1.4-1.5-1.4-1.9,0.1-3.3c0.9-0.9,3-1.6,4.8-1.6
		c4,0,10.6-3,13.3-6.1c5-5.6,5-12.8,0-21.3c-3.1-5.3-3.3-7.2-0.7-7.9c3.9-1,7.3-13.4,17-61.5c5-24.9,6.4-34.4,8-53.1
		c1.1-12.5,2.9-30,4-38.9s2.5-30.2,3.2-47.5c2.3-59.7-1.1-83.1-15.6-107.9c-11.8-20.1-30-30.6-59-33.9c-18.2-2.1-28.7,1.3-40.5,13
		c-16.3,16.2-21.4,29.4-29.5,76.8c-2.5,14.4-6.3,35.1-8.4,46c-2.2,10.9-5.1,28.9-6.6,39.9s-3,22.5-3.5,25.5
		c-0.9,5.4-0.8,5.6,2.1,8.1c2.2,1.8,2.9,3.2,2.7,5c-0.3,2.1-1.3,2.7-7.3,4.2c-5.3,1.4-7.8,2.6-10.1,5.1c-6.3,6.7-5,15.2,3.3,21.1
		c4.8,3.4,5.3,5.2,2.1,6.4c-1.9,0.7-3,3.4-7.1,18.2c-2.7,9.6-8.7,28.2-13.4,41.4C12.6,407.9,12,410,12.9,437.2
		c0.6,18.8,2.1,25.7,7.7,37.5c7.1,14.6,16.6,21.9,32.5,24.7C63,501.2,72.1,501.3,82.3,499.9L82.3,499.9z M30.6,480.1
		c-3.1-2.6-3.5-3.4-3.5-8c0-5.5,1.3-7.3,5-6.8c1.7,0.2,2,0.9,1.7,5.1c-0.4,5.8,0.7,7.3,5.9,8.2c4.6,0.8,5,1.7,1.4,3.3
		C37.1,483.7,34.3,483.2,30.6,480.1L30.6,480.1z M114.1,468.3c-4.8-1.3-7-5.8-4-8.3c1.2-1,2.5-1,5.9-0.1c6.8,1.7,8.9,1.4,12-1.8
		c2.3-2.4,2.7-3.6,2.5-7.5c-0.3-5.4,1.1-7.6,3.2-5c0.9,1,1.4,4,1.4,7.5c0,6.2-1.7,9.5-6.7,13.2C125.8,468.3,118,469.4,114.1,468.3
		L114.1,468.3z M28,460.2c-6.9-3.7-10.1-12.4-7.4-20.5c1.1-3.3,7-9.7,9-9.7c1.1,0,4,2.9,4,4c0,0.5-1.9,2.7-4.2,4.9
		c-3.6,3.4-4.2,4.6-4.2,7.9c0,5.1,2.7,9.1,7.6,11c2.1,0.8,3.9,2.1,3.9,2.9C36.6,462.5,31.8,462.3,28,460.2L28,460.2z M138.4,437.9
		c-2.2-1.3-2.3-5.5-0.2-6.3c0.9-0.3,2.6-0.6,3.9-0.6c3.6,0,5.5-3.4,4.2-7.6c-1.4-4.6-0.1-5.6,2.9-2.1c4.7,5.4,2.6,13.5-4.2,16.3
		C141.1,439.2,140.7,439.3,138.4,437.9L138.4,437.9z M74.4,374.7c-5-4.6-4.8-11.7,0.4-16.1c3.9-3.3,9.2-3.2,9.6,0.2
		c0.2,1.6-0.7,2.8-3.8,4.8c-3.2,2-4.1,3.2-4.1,5.4c0,1.6,0.9,3.6,2,4.6c2,1.9,1.9,3.5-0.4,3.5C77.5,377,75.8,375.9,74.4,374.7
		L74.4,374.7z M64.2,345c-5.6-5.1-7.6-9.4-7.6-16.2c0-6.6,3.7-14.8,8.4-18.2c7.3-5.5,15.1-5.4,14.5,0.1c-0.3,2.1-1.3,2.9-5.5,4.5
		c-13.7,5.1-15.9,21.4-3.8,28.8c4.2,2.6,4.7,5,1,5C69.6,349,66.9,347.5,64.2,345L64.2,345z M84.6,302.1c-3.9-3.9-4-8.7-0.2-12.3
		c5.2-4.9,11.5-6.1,15.4-2.8c2.3,2,2.3,2,0.4,3.5c-1.1,0.8-3.4,1.5-5.2,1.5c-3,0-7.3,2.8-7.3,4.8c0,0.4,0.9,2.2,2,4
		c2.5,4.1,2.5,4.2-0.1,4.2C88.4,305,86.2,303.7,84.6,302.1L84.6,302.1z M195.2,271.5c-2.8-2.8-1.9-4.9,2.8-7.2
		c8.7-4.2,9.8-11.5,2.8-17.9c-2.7-2.5-3.3-3.6-2.5-4.5c2-2,7.2,1,10.4,6c3.5,5.6,3.7,11,0.6,16.6C206,270.5,198.1,274.4,195.2,271.5
		z M189.4,182.4c-1.5-1.5-0.7-2.4,3.5-3.5c8.9-2.3,16.4-8.4,19.5-15.9c2-4.9,1.8-14.2-0.6-19.5c-1.1-2.4-3.8-6.5-6.1-8.9
		c-4.5-4.8-4-6.7,0.9-4.2c6,3.1,11.8,12.9,12.6,21.3c1.2,11.4-4.2,21.9-14.2,27.8C200.7,182.1,190.8,183.9,189.4,182.4L189.4,182.4z
		 M148.3,175c-25.4-5.5-34.9-11.5-42.7-27.3c-4.6-9.1-3.6-17.6,2.5-22.5c5.4-4.2,10.8-2.7,30.6,8.4c11,6.2,9.6,6.1,24.9,1.9
		c6.7-1.9,23.2-2.1,28.8-0.4c9.3,2.8,15.1,11.4,13.8,20.4c-1.3,8.9-10.3,16.8-22.9,20.1C176,177.6,158.9,177.2,148.3,175L148.3,175z
		 M162.1,172c0.8-1.4-1.3-5-2.9-5c-1.9,0-3.9,2.7-3.2,4.5C156.6,173.2,161.2,173.6,162.1,172L162.1,172z M175.1,172
		c0.8-1.4-1.6-5-3.9-5.7c-2.2-0.7-4.6,1.9-4.6,4.8c0,1.4,0.8,1.8,3.9,1.8C172.7,173,174.8,172.6,175.1,172L175.1,172z M152.2,167.6
		c-0.7-2.9-3.6-3.5-5.6-1.1c-1.7,2-0.6,4.3,2.2,4.7C152,171.7,153,170.6,152.2,167.6L152.2,167.6z M191.1,168.9
		c1.3-1.2-1.2-8.3-4.5-12.9c-3.1-4.3-8.2-7-13.1-7c-4.9,0-11,1.9-10.6,3.3c0.2,0.6,3.3,2.2,6.8,3.4c7.2,2.6,10.1,4.9,13.7,11
		c2.1,3.5,2.9,4.2,4.7,3.6C189.2,170.1,190.5,169.4,191.1,168.9L191.1,168.9z M141.4,166.4c0.4-3-2.1-4.8-4.7-3.4
		c-2.5,1.3-2.7,4.7-0.3,5.4C139.5,169.2,141.1,168.5,141.4,166.4z M141.7,145c1.1-0.6,1.9-1.8,1.9-2.8c0-2-4.3-4.7-5.9-3.7
		c-1.5,0.9-1.4,4.9,0.1,6.4C139.3,146.3,139.3,146.3,141.7,145L141.7,145z M162.5,142.6c0.5-2.5-0.9-3.7-3.6-3
		c-2.1,0.6-3,3.2-1.5,4.7C158.7,145.7,162.1,144.5,162.5,142.6z M133.5,136.6c0.4-2.1-1.3-3.6-4.1-3.6c-1.8,0-2.5,3.9-1,5.4
		C129.7,139.7,133.1,138.5,133.5,136.6z M113.6,171.8c-11.9-6.8-22.5-21.6-23.7-33c-1-9.8,4.1-19.4,12.5-23.8
		c5.4-2.8,21.2-0.2,21.2,3.5c0,0.9-1.4,0.9-6.1-0.3c-4.8-1.2-6.8-1.3-9.9-0.4c-12.3,3.7-16.7,17.5-10,31c3.5,7,12,16.7,18.6,21.2
		c3.9,2.7,5.5,4.9,3.6,4.9C119.5,175,116.7,173.6,113.6,171.8L113.6,171.8z M142.8,123.4c-2.4-3.1-3.6-9.9-2.8-16.4l0.6-4.8
		l-5.9-0.5c-12.1-1.1-20.6-7.3-23.6-17.3c-1.9-6.4-1.8-9.3,0.7-16c4.5-12,14.2-17.2,27.2-14.5c5.6,1.2,13.6,4.7,13.7,6
		c0,0.3,1.3,2.1,2.9,4c2.8,3.3,3,3.4,4.8,1.8c2.4-2.2,12-5.5,18.3-6.3c9.3-1.2,18.8,4.2,23.4,13.3c6.7,13.3-1.5,31.1-15.8,34.3
		c-11,2.5-22.5-1.6-28.3-10.1c-1.5-2.2-3.2-3.9-3.9-4c-0.6,0-2.6,1.8-4.5,4.1c-2.8,3.5-3.4,5.2-3.7,10.5c-0.5,7.2,0.3,11.4,2.1,11.4
		c0.7,0,2.8-2.6,4.6-5.8c4.4-7.5,6-9.2,7.7-8.6c2.4,0.9,1.6,4.7-2.3,11.2c-3.7,6.2-8.2,10.1-11.4,10.2
		C145.5,126,143.9,124.8,142.8,123.4L142.8,123.4z M189.9,99.8c5.4-3,8.7-9.2,8.7-16.5c0-6.9-2.7-11.9-8.3-15.6
		c-3.8-2.5-4.8-2.7-11.2-2.3c-14.7,0.9-22.1,9.3-19.4,22.3C162.3,100.4,177.7,106.6,189.9,99.8z M175.9,85.8
		c-1.2-0.6-2.2-1.6-2.2-2.3c0-1.8,4.4-5.5,6.6-5.5c2.6,0,6.6,4.3,6.2,6.7C186,86.9,179.5,87.6,175.9,85.8z M145.4,93.4
		c3.9-2.8,8.3-11.8,8.3-16.9c0-6-3.7-12.5-8.4-14.9c-4.1-2.1-13.7-3.3-17.9-2.2c-5.6,1.4-11.6,10.8-11.6,18.1
		c0,7.2,3.7,13.2,10.5,16.9C130.4,96.7,141.6,96.2,145.4,93.4L145.4,93.4z M124.4,78.9c-2.5-1.5-2.2-4.4,0.7-6.3
		c2.9-1.9,5.7-2.1,7.3-0.4c2.1,2.1,1.3,4.7-1.8,6.3C127.3,80.2,126.7,80.3,124.4,78.9z M180.8,116.1c-1.7-1.2-0.6-3.1,1.8-3.1
		c4.5,0,12.6-3.4,17.6-7.5c3-2.5,5.7-4.5,6-4.5s0.5,1.1,0.5,2.4C206.6,109.4,185.9,119.6,180.8,116.1L180.8,116.1z M115.1,108.4
		c-4.7-2.5-9.3-7.4-11.1-12c-1.6-4.3-1.6-9.3,0-9.7c1-0.2,1.6,0.7,4.2,7.1c1.6,3.8,4.3,6.8,11.3,12.5c2.2,1.8,2.1,3.7-0.2,3.7
		C118.7,110,116.8,109.3,115.1,108.4L115.1,108.4z M204,63.5c-2.8-1.6-7-5.1-9.3-7.7c-5.4-6.1-9.6-8.7-19.6-11.9
		c-11.8-3.8-23.5-3.6-37.4,0.6c-5.7,1.7-12.2,4.1-14.4,5.2l-4.1,2.1l-1.8-2.2c-8.5-10.5,14.1-23.1,39.2-21.7
		c20.9,1.2,44,11.5,52.4,23.4c3.8,5.4,5.1,15.3,2,15.3C210,66.4,206.8,65.1,204,63.5z"/>
</g>
</svg>
