<?xml version="1.0" encoding="UTF-8" ?>
<!DOCTYPE svg PUBLIC "-//W3C//DTD SVG 1.1//EN" "http://www.w3.org/Graphics/SVG/1.1/DTD/svg11.dtd">
<svg width="1250pt" height="1100pt" viewBox="0 0 1250 1100" version="1.1" xmlns="http://www.w3.org/2000/svg">
<g id="#07070cff">
<path fill="#07070c" opacity="1.00" d=" M 1102.98 84.50 C 1130.16 79.11 1158.28 74.92 1185.88 79.56 C 1199.62 82.02 1213.63 87.24 1223.10 97.92 C 1233.18 108.88 1236.29 124.56 1235.23 139.04 C 1233.42 160.30 1225.71 180.53 1216.52 199.60 C 1199.40 234.49 1176.88 266.40 1153.08 297.00 C 1103.08 360.43 1046.13 418.02 987.00 472.91 C 906.71 546.80 821.50 615.26 733.12 679.23 C 631.37 752.71 525.41 820.63 414.40 879.32 C 359.83 908.01 304.00 934.50 246.29 956.29 C 213.54 968.50 180.18 979.32 145.93 986.44 C 130.44 989.55 114.77 992.00 98.98 992.77 C 89.87 993.95 80.70 992.91 71.61 992.13 C 57.23 990.35 42.41 986.38 31.25 976.68 C 20.95 967.87 15.53 954.33 15.19 940.94 C 14.27 919.39 21.57 898.55 30.09 879.08 C 45.46 845.25 66.46 814.33 88.75 784.72 C 137.89 720.40 194.57 662.24 253.53 606.93 C 253.45 609.07 254.54 611.79 252.43 613.30 C 225.29 640.23 198.97 668.01 174.24 697.18 C 150.05 725.87 127.06 755.77 108.15 788.25 C 97.29 807.26 87.50 827.27 82.88 848.81 C 80.30 862.00 79.76 876.52 86.24 888.74 C 91.50 899.04 101.63 906.02 112.42 909.54 C 128.06 914.70 144.82 914.78 161.08 913.50 C 177.81 911.95 194.35 908.82 210.66 904.80 C 255.04 893.64 297.80 876.91 339.59 858.43 C 411.54 826.22 480.65 787.97 547.77 746.72 C 613.95 705.91 678.14 661.92 740.41 615.38 C 827.98 549.66 912.06 478.97 988.90 400.88 C 1020.84 367.99 1051.68 333.91 1079.30 297.27 C 1093.44 278.43 1106.80 258.94 1118.22 238.31 C 1127.69 220.92 1136.21 202.69 1140.19 183.17 C 1142.62 170.46 1143.07 156.60 1137.13 144.75 C 1131.88 133.89 1121.32 126.47 1110.02 122.93 C 1091.95 117.15 1072.58 117.94 1053.95 119.97 C 1022.74 123.85 992.36 132.56 962.65 142.67 C 911.83 160.23 862.80 182.63 814.91 206.99 C 813.74 206.42 809.46 205.72 811.93 204.15 C 877.21 168.92 944.09 136.23 1013.84 110.74 C 1042.97 100.19 1072.63 90.89 1102.98 84.50 Z" />
<path fill="#07070c" opacity="1.00" d=" M 615.92 184.05 C 629.20 182.27 642.66 182.46 656.02 181.83 C 666.89 182.48 677.80 182.23 688.64 183.36 C 663.09 214.38 634.88 243.14 605.34 270.36 C 549.38 321.52 488.45 367.21 424.01 407.15 C 375.32 437.13 324.50 463.91 271.18 484.70 C 276.94 461.06 284.63 437.80 294.82 415.70 C 304.35 410.53 314.30 406.07 323.85 400.91 C 393.18 364.50 458.46 320.60 519.41 271.50 C 551.00 245.94 581.29 218.76 609.87 189.87 C 611.89 187.95 613.49 185.48 615.92 184.05 Z" />
<path fill="#07070c" opacity="1.00" d=" M 656.75 222.69 C 668.62 210.04 680.18 197.07 691.14 183.62 C 708.85 185.15 726.43 188.01 743.78 191.88 C 721.19 223.42 695.32 252.47 668.09 280.04 C 615.93 332.26 558.24 378.81 497.25 420.31 C 464.31 442.63 430.33 463.44 395.25 482.22 C 352.55 504.92 308.35 525.24 262.08 539.57 C 263.40 521.94 266.68 504.50 270.53 487.26 C 344.20 458.59 413.20 418.99 478.18 374.20 C 542.36 329.58 603.02 279.55 656.75 222.69 Z" />
<path fill="#07070c" opacity="1.00" d=" M 472.21 227.11 C 515.64 204.35 563.36 189.53 612.16 184.50 C 558.60 239.16 499.08 287.80 435.90 330.92 C 391.32 361.22 344.88 388.93 296.28 412.31 C 332.14 333.26 395.35 267.28 472.21 227.11 Z" />
<path fill="#07070c" opacity="1.00" d=" M 729.87 213.87 C 735.38 206.86 740.71 199.71 745.94 192.48 C 761.49 195.91 776.74 200.66 791.74 206.00 C 772.76 236.77 750.05 265.06 725.88 291.88 C 672.28 350.70 611.16 402.35 546.28 448.30 C 483.57 492.42 417.00 531.56 346.16 561.15 C 318.25 572.74 289.59 582.59 260.21 589.73 C 259.91 573.76 260.17 557.78 261.74 541.88 C 300.17 530.09 337.17 514.06 373.11 496.14 C 442.81 460.96 508.44 417.98 569.85 369.83 C 628.35 323.58 683.50 272.46 729.87 213.87 Z" />
<path fill="#07070c" opacity="1.00" d=" M 793.40 207.03 C 794.87 207.35 796.35 207.68 797.76 208.25 C 810.21 213.20 822.60 218.37 834.46 224.63 C 817.17 257.57 794.90 287.62 770.87 315.91 C 722.05 372.77 665.72 422.80 605.97 467.87 C 544.28 514.01 478.63 555.15 408.86 587.94 C 362.73 609.24 314.72 627.76 264.38 635.99 C 262.01 621.37 260.96 606.57 260.27 591.78 C 301.30 582.04 340.80 566.71 379.00 549.01 C 452.90 514.42 522.13 470.41 586.96 421.01 C 644.80 376.53 699.36 327.35 746.44 271.48 C 763.44 251.04 779.64 229.81 793.40 207.03 Z" />
<path fill="#07070c" opacity="1.00" d=" M 836.22 225.52 C 848.96 231.80 861.21 239.08 873.08 246.87 C 859.92 278.09 840.86 306.42 820.27 333.17 C 794.89 365.83 766.43 395.98 736.48 424.46 C 683.55 474.43 625.74 519.14 564.72 558.79 C 530.05 581.22 494.24 601.90 457.27 620.31 C 418.57 639.34 378.61 656.18 337.03 667.83 C 316.25 673.64 295.01 677.94 273.50 679.84 C 269.52 666.17 266.90 652.14 264.60 638.10 C 305.89 631.42 345.65 617.56 384.09 601.36 C 458.27 569.51 527.73 527.45 592.97 480.08 C 655.76 434.16 714.91 382.83 766.36 324.38 C 792.79 293.84 817.59 261.48 836.22 225.52 Z" />
<path fill="#07070c" opacity="1.00" d=" M 874.87 248.04 C 886.55 255.77 897.77 264.17 908.58 273.07 C 897.84 305.00 879.85 333.89 860.20 361.02 C 836.86 392.96 810.27 422.40 782.28 450.30 C 729.01 502.85 670.21 549.63 608.05 591.22 C 574.46 613.57 539.80 634.33 504.01 652.97 C 462.73 674.37 419.98 693.27 375.39 706.67 C 346.67 715.09 317.03 721.66 286.96 721.61 C 282.05 708.57 277.50 695.37 273.93 681.89 C 316.83 678.12 358.23 664.85 398.12 649.17 C 473.57 618.76 544.11 577.21 610.42 530.30 C 669.54 488.14 725.48 441.25 775.45 388.49 C 801.15 361.17 825.26 332.23 845.99 300.93 C 856.98 284.10 867.11 266.61 874.87 248.04 Z" />
<path fill="#07070c" opacity="1.00" d=" M 910.18 274.80 C 921.41 283.55 931.66 293.57 941.51 303.84 C 933.82 332.44 919.46 358.70 903.27 383.30 C 886.85 408.06 868.18 431.27 848.42 453.43 C 798.74 508.66 742.26 557.49 682.42 601.39 C 620.97 646.15 555.71 686.01 486.35 717.31 C 447.58 734.61 407.46 749.47 365.74 757.82 C 346.01 761.62 325.84 763.91 305.74 762.45 C 299.33 749.78 292.77 737.08 288.11 723.65 C 310.37 723.91 332.42 719.80 354.00 714.69 C 397.00 703.95 438.32 687.39 478.25 668.30 C 547.48 634.83 612.64 593.30 673.86 546.85 C 733.67 501.07 790.10 450.35 838.39 392.40 C 861.31 364.53 882.63 335.03 898.68 302.61 C 903.08 293.59 907.03 284.33 910.18 274.80 Z" />
<path fill="#07070c" opacity="1.00" d=" M 943.09 305.51 C 953.37 316.49 963.32 327.87 972.10 340.09 C 971.20 347.59 968.34 354.82 965.98 362.00 C 955.01 391.48 938.16 418.36 919.76 443.72 C 906.97 461.12 893.34 477.91 878.85 493.92 C 836.09 531.37 791.76 567.00 746.46 601.34 C 672.42 657.19 595.70 709.54 516.06 757.09 C 511.36 759.81 506.87 762.94 501.79 764.92 C 462.32 781.52 421.44 795.69 378.94 801.93 C 362.97 804.02 346.77 805.22 330.72 803.35 C 322.07 790.96 314.00 778.11 307.11 764.67 C 329.49 766.34 351.92 762.88 373.79 758.32 C 413.89 749.36 452.57 734.89 489.97 718.04 C 563.28 684.64 632.01 641.77 696.46 593.59 C 754.60 549.80 809.51 501.35 857.40 446.43 C 876.73 424.08 894.92 400.66 910.67 375.63 C 924.30 353.75 936.58 330.59 943.09 305.51 Z" />
<path fill="#07070c" opacity="1.00" d=" M 974.04 342.58 C 982.99 354.47 991.09 367.00 998.57 379.87 C 964.74 415.34 929.40 449.41 892.55 481.73 C 911.27 459.06 929.34 435.73 944.46 410.46 C 957.18 389.26 968.31 366.75 974.04 342.58 Z" />
<path fill="#07070c" opacity="1.00" d=" M 973.16 538.12 C 995.23 509.09 1015.45 478.11 1028.24 443.78 C 1035.76 464.32 1041.36 485.56 1045.29 507.08 C 1045.83 508.87 1044.74 510.45 1044.00 511.99 C 1028.15 542.81 1007.75 571.04 985.71 597.70 C 960.97 627.47 933.86 655.20 905.48 681.50 C 873.42 711.04 839.62 738.69 804.50 764.51 C 765.04 793.51 723.92 820.30 681.21 844.28 C 638.67 868.04 594.56 889.24 548.53 905.38 C 523.58 914.05 498.03 921.24 471.90 925.32 C 469.93 925.49 467.76 926.24 465.95 925.09 C 446.78 914.54 428.31 902.61 411.25 888.89 C 431.23 888.56 451.03 885.08 470.45 880.56 C 507.06 871.72 542.47 858.46 576.82 843.11 C 627.89 820.15 676.67 792.29 723.41 761.52 C 760.63 736.92 796.58 710.39 830.99 682.00 C 882.94 638.89 931.90 591.69 973.16 538.12 Z" />
<path fill="#07070c" opacity="1.00" d=" M 841.62 606.70 C 904.76 556.86 965.76 504.29 1023.92 448.72 C 1015.14 471.76 1002.31 493.04 988.52 513.41 C 961.40 552.84 929.16 588.49 895.01 621.91 C 860.67 655.17 824.10 686.11 785.91 714.87 C 722.69 762.27 655.27 804.44 583.52 837.70 C 550.64 852.80 516.81 866.06 481.84 875.51 C 460.72 881.10 439.15 885.45 417.29 886.55 C 491.88 847.00 564.28 803.37 634.65 756.74 C 697.60 720.13 757.31 677.94 812.88 630.89 C 822.48 622.84 831.61 614.24 841.62 606.70 Z" />
<path fill="#07070c" opacity="1.00" d=" M 1019.18 557.17 C 1029.02 542.79 1038.23 527.94 1046.11 512.38 C 1050.63 538.34 1052.26 564.82 1051.24 591.14 C 1031.90 620.77 1008.84 647.84 984.82 673.77 C 932.01 729.82 872.59 779.41 809.56 823.56 C 775.82 847.12 740.95 869.08 704.92 888.97 C 654.58 916.64 601.99 940.85 546.66 956.72 C 543.86 958.00 541.04 956.43 538.34 955.68 C 515.02 948.47 492.42 939.03 470.78 927.76 C 520.35 919.66 567.84 902.13 613.38 881.34 C 657.55 861.03 700.00 837.09 740.90 810.84 C 779.26 786.17 816.27 759.41 851.72 730.73 C 885.29 703.53 917.44 674.55 947.47 643.48 C 973.43 616.51 997.86 587.97 1019.18 557.17 Z" />
<path fill="#07070c" opacity="1.00" d=" M 1003.40 656.46 C 1020.52 637.11 1036.33 616.64 1051.22 595.54 C 1049.92 620.92 1046.45 646.22 1040.42 670.92 C 1038.52 678.41 1036.83 686.00 1034.14 693.24 C 1023.57 705.89 1012.11 717.82 1000.60 729.65 C 946.39 784.81 885.90 833.61 821.85 876.87 C 767.49 913.46 710.26 946.05 649.95 971.82 C 648.05 972.60 646.13 973.62 644.02 973.41 C 611.57 972.08 579.08 967.64 547.92 958.33 C 572.78 951.69 596.91 942.50 620.64 932.60 C 696.67 900.17 767.77 857.03 834.42 808.34 C 895.49 763.38 953.12 713.35 1003.40 656.46 Z" />
<path fill="#07070c" opacity="1.00" d=" M 1026.41 705.42 C 1028.41 703.21 1030.18 700.76 1032.55 698.91 C 1009.96 770.04 966.53 834.35 909.03 881.92 C 844.37 935.92 762.13 968.62 677.93 972.85 C 669.20 973.47 660.43 973.65 651.68 973.48 C 725.30 941.73 794.43 900.25 859.27 853.25 C 919.49 809.43 976.31 760.61 1026.41 705.42 Z" />
<path fill="#07070c" opacity="1.00" d=" M 403.41 799.65 C 433.08 793.16 461.91 783.30 490.10 772.09 C 479.57 778.77 468.49 784.54 457.65 790.70 C 425.63 808.39 393.13 825.24 359.99 840.73 C 350.16 829.51 340.80 817.87 332.27 805.63 C 356.11 807.86 380.11 804.64 403.41 799.65 Z" />
</g>
</svg>
