<svg id="Layer_1" data-name="Layer 1" xmlns="http://www.w3.org/2000/svg" viewBox="0 0 452.57 452.57"><defs><style>.cls-1{fill:#ffd96a;}.cls-2{fill:#f4506b;}</style></defs><title>reaction4</title><circle id="_Tracé_" data-name="&lt;Tracé&gt;" class="cls-1" cx="226.28" cy="226.28" r="226.28"/><path id="_Tracé_2" data-name="&lt;Tracé&gt;" d="M122.16,220.07a9.52,9.52,0,0,1-3.74-18.27l44-18.77L116.59,157.2a9.52,9.52,0,0,1,9.34-16.58l62.62,35.29a9.52,9.52,0,0,1-.94,17L125.89,219.3A9.48,9.48,0,0,1,122.16,220.07Z" transform="translate(-34.52 -33.43)"/><path id="_Tracé_3" data-name="&lt;Tracé&gt;" d="M398.69,220.07a9.52,9.52,0,0,0,3.74-18.27l-44-18.77,45.82-25.82a9.52,9.52,0,0,0-9.34-16.58L332.3,175.91a9.52,9.52,0,0,0,.94,17L395,219.3A9.48,9.48,0,0,0,398.69,220.07Z" transform="translate(-34.52 -33.43)"/><path id="_Tracé_4" data-name="&lt;Tracé&gt;" d="M109.1,264c.7,78.54,67.57,143.81,150,143.81S408.37,342.5,409.07,264Z" transform="translate(-34.52 -33.43)"/><path id="_Tracé_5" data-name="&lt;Tracé&gt;" class="cls-2" d="M395.42,325.28c-39.51-14-86.22-22.21-136.33-22.21s-96.81,8.17-136.33,22.21c23.71,49.91,75.81,84.59,136.33,84.59S371.71,375.19,395.42,325.28Z" transform="translate(-34.52 -33.43)"/></svg>