<?xml version="1.0" encoding="utf-8"?>
<!-- Generator: Adobe Illustrator 22.0.1, SVG Export Plug-In . SVG Version: 6.00 Build 0)  -->
<svg version="1.1" id="Layer_1" xmlns="http://www.w3.org/2000/svg" xmlns:xlink="http://www.w3.org/1999/xlink" x="0px" y="0px"
	 viewBox="0 0 2000 2000" style="enable-background:new 0 0 2000 2000;" xml:space="preserve">
<style type="text/css">
	.st0{fill:#130E0D;}
	.st1{fill:#E78C00;}
	.st2{fill:#E73C02;}
	.st3{fill:#E76300;}
	.st4{fill:#FFFFFF;}
	.st5{fill:#FD0101;}
	.st6{fill:#E6E000;}
	.st7{fill:#AFAFAF;}
	.st8{fill:#CE0000;}
	.st9{fill:#7FE2FC;}
</style>
<path class="st0" d="M1071.2,1179.1c-8.2-7.6-16.5-15.2-24.7-22.8c-8.4-7.7-16.7-15.4-25.1-23.2c-11-10.6-22-21.1-33.4-32.1
	c-3.3,3.4-6,6.1-8.6,8.8c-52,56-104,112.1-156,168.1c-2.5,2.7-5.3,5.2-8.4,8.2c-8.1-7.5-16.2-13.5-22.6-22
	c57.4-62.1,114.4-123.3,171.7-185.2c-19.3-17.6-37.7-34.4-56.1-51.2c-5.3-4.9-10.7-9.7-16-14.6c-3-2.7-5.9-5.4-8.9-8
	c-7-6.9-14-13.9-21.2-20.7c-11.6-11-23.4-21.8-35.4-32.9c0.7-2.6,1.2-5.1,2-7.4c19.5-58.6,41.6-116.1,66.7-172.5
	c3-6.7,7.2-13,3-20.8c-4.7-8.8-11.2-15.3-21-18.6c-8.8-2.9-17.7-2.5-26.6-1.2c-13.7,2.1-26.6,6.7-39.2,12.2
	c-27.4,12-52.5,27.8-77,44.8c-53.5,37.1-103,79.1-150.9,123c-26.2,24-51.5,48.9-77.2,73.4c-1.6,1.5-3.3,2.9-5.3,4.7
	c-2.2-1.5-4.2-2.8-6.5-4.4c0.7-1.8,1.1-3.3,1.9-4.6c37.3-65.6,77.3-129.6,122.5-190.1c30.3-40.5,62.8-79.2,99.4-114.2
	c27.4-26.2,56.7-49.9,89.9-68.4c26.2-14.6,53.7-25.4,83.8-28.6c31.6-3.3,61.2,1.9,87.6,20.6c0.8,0.5,1.6,1,2.5,1.4
	c0.3,0.1,0.6,0.1,1.5,0.2c2.2-3.6,4.6-7.3,7-11.1c49.9-81.2,107.2-156.7,174.1-224.7c117.5-119.5,254.7-207.8,414-261
	c76.4-25.5,154.8-41.6,235.1-48.2c35.7-2.9,71.5-3.4,107.4-1.9c1.6,0.1,3.2,0.1,4.8,0.3c6.9,0.7,9.1,2.3,10.1,9.2
	c2,15.5,4,31.1,5.2,46.7c4.8,63.4,2.2,126.6-6.2,189.6c-16.7,125.6-55.4,244-116.3,355.1c-61.9,112.7-142.4,210.5-238.2,296
	c-35.4,31.6-72.4,61-110.9,88.7c-2.5,1.8-5,3.8-7.5,5.6c4.3,6,8.6,11.3,12,17c12.6,20.8,18,43.6,17.9,67.7
	c-0.2,34.6-10.3,66.7-25.5,97.5c-19,38.8-44.6,73-72.9,105.4c-42.7,48.8-91.1,91.6-141.7,132c-41.8,33.3-85.3,64.4-129.5,94.3
	c-1.3,0.9-2.7,1.7-4.8,2.9c-1.8-1.9-3.6-3.8-5.9-6.1c4.7-5.6,9-10.7,13.3-15.8c46-54.1,89.8-110,129.7-168.7
	c25.4-37.3,49.6-75.3,68.3-116.5c8.2-18.1,15.6-36.5,18.8-56.2c1.4-8.4,1.9-17.3,1.1-25.7c-1.8-18.4-12.7-29.3-30.6-33.5
	c-30.9,15.6-61.5,31.4-92.5,46.5c-31,15.1-62.5,29.1-94.7,42.2c-11.8-10.9-23.2-21.6-34.7-32.2
	C1084.1,1190.5,1077.6,1184.9,1071.2,1179.1z M1148.7,1526.7c-2.5,1.6-4.5,3.6-4.2,7.4c2-1.7,4.1-3.4,6.1-5
	c20.1-14.7,40.2-29.4,60.2-44.1c2.7-1.7,5.5-3.1,8-5c7.9-6,15.7-12.2,23.4-18.3c55.6-43.9,108.3-90.7,154.1-145
	c22.9-27.2,43.7-55.9,59.9-87.7c16.8-33.1,28.8-67.6,27.1-105.5c-1-21.9-6.8-42.2-19-60.5c-2.8-4.1-6.3-7.8-9.5-11.6
	c-2,0.9-3.3,1.3-4.3,2c-39.1,27.2-79.6,52.2-121,75.8c-1.8,1-3.2,2.7-5.2,4.4c2.5,1.6,4.4,2.8,6.3,3.9c12.1,7.2,18.4,18.2,21,31.7
	c0.7,3.4,1.1,6.9,1.6,10.4c-1.5,14.3-3.1,28.5-7.6,42.4c-10.4,32.1-25.7,62-42.8,90.9c-29.9,50.7-64,98.7-100,145.3
	C1185.1,1481.4,1166.7,1503.9,1148.7,1526.7z M930,698.6c16-29.4,31.9-58.8,47.8-88c-7.1-7.7-18.3-14.1-31.6-18.1
	c-26.8-8.1-53.6-7-80.3,0.5c-32.8,9.1-61.8,25.6-89.2,45.5c-35.9,26.1-67.2,57.1-96.4,90.2c-42.4,48-79.4,100.1-114.2,153.7
	c-10.2,15.8-19.8,32.1-29.6,48.1c-5,7.2-10,14.4-12.9,23c2.3-0.8,4.1-2,5.7-3.4c6.3-5.9,12.5-11.9,18.8-17.8
	c55.5-52.6,113.2-102.6,175.6-147c24.5-17.4,49.9-33.6,77.2-46.4c17.4-8.2,35.3-15.3,54.7-17c19.3-1.7,36.2,3,47.8,20
	c0.8,1.2,2.1,2.1,4,4C915.1,729.5,922.6,714,930,698.6z M1247.4,1162.5c2.1-0.9,3.9-1.5,5.6-2.4c70.9-35.8,139.2-76,204-122
	c89.4-63.4,170.5-135.9,240.5-220.5c72.9-88.1,130.8-185.1,171.5-292.1c0.9-2.3,1.4-4.7,2.1-7.1c-130.4-122.2-260.3-244-389.6-365.3
	c-1.9,0.4-2.6,0.4-3.1,0.6c-2.3,1-4.7,2.1-7,3.2c-85.7,40.2-164,91.8-235.4,153.8c-76.5,66.4-142.5,142.2-199.7,225.7
	c-60.6,88.4-109.9,182.8-151,281.6c-0.8,2-1.3,4.1-2.1,6.6c56.8,52.7,113.4,105.3,170.3,158c18.8-20.2,36.8-39.6,54.9-59.1
	c18.1-19.5,36-39,54.2-58.4c18-19.3,35.6-39,54.9-58.6c7.8,8,16,13.8,22.8,22.4c-54.6,58.9-108.6,117.1-162.9,175.7
	C1134.3,1057.7,1190.8,1110,1247.4,1162.5z M1491.8,147.6c0.6,1.7,0.7,2.4,1.1,2.8c123,114.3,246.1,228.5,369.2,342.8
	c4,3.7,8.1,7.3,12.1,10.9c0.2,0.2,0.6,0.2,0.9,0.2c0.3,0,0.6-0.1,2-0.4c3-8.7,6.2-18,9.3-27.3c11.8-36.5,21.1-73.7,28.4-111.4
	c5.9-30.5,11.1-61,14.9-91.8c3.2-25.8,2.7-51.7,2.2-77.6c-0.6-32.9-0.8-65.9-1.3-98.8c-0.2-10.8-0.7-21.6-3.6-33.1
	c-77.5-4.8-153.9,2.5-229.6,17.9C1626.4,96.1,1557.8,118,1491.8,147.6z M879.1,832.8c-15.9,39.2-29.8,76.9-42.2,114.7
	c6.9,8.9,127.7,120.3,134.3,123.9c25.2-27.2,50.6-54.6,76.3-82.4C991.2,936.8,935.8,885.4,879.1,832.8z M1238.4,1167.5
	c-7.3-9.3-161.4-151.7-168.3-155.5c-25.2,27.2-50.6,54.5-76.4,82.4c44.9,41.6,89.1,82.6,133.5,123.7
	C1165.1,1202.4,1201.6,1185.8,1238.4,1167.5z M1217.4,811.5c-21.2,20-415.4,446.3-419.7,454c2.6,2.5,5.3,5.2,8.1,7.8
	c3,2.8,6,5.4,9.5,8.6c140.5-151.4,280.2-302.1,420.5-453.4C1229.4,822.6,1223.6,817.2,1217.4,811.5z"/>
<path class="st1" d="M1021.4,1133.1c8.4,7.7,16.7,15.4,25.1,23.2c-5.7,23.8-16.1,45.7-26.3,67.7c-12.3,26.7-26.3,52.6-42.5,77.2
	c-17.4,26.5-36.8,51.5-60.3,72.9c-17,15.5-34.4,30.6-52.4,44.9c-15.2,12.2-31.4,23-47.1,34.5c-7,5.1-14,10-20.8,15.4
	c-25.2,20.2-50.8,39.9-75.2,61c-19.3,16.6-37.2,34.9-55.7,52.5c-24.1,22.9-45.8,48.1-68,72.7c-1.4,1.5-3.5,2.4-5.3,3.6
	c0,0-0.2-0.2-0.2-0.2c1.3-2.5,2.3-5.2,3.8-7.6c15.7-24.8,31.4-49.6,47.3-74.3c15.5-24.1,31-48.3,46.9-72.2
	c19.6-29.4,39.6-58.6,59.5-87.9c5.9-8.7,12.1-17.2,18-25.9c1.8-2.6,3-5.6,4.6-8.3c0.7-1.3,1.4-2.5,2.1-3.8c0.3-0.2,0.6-0.4-0.3,0.3
	c0.9-0.8,0.6-0.5,0.3-0.3c-0.8,1.1-1.6,2.3-2.5,3.4c-9.2,3-14.7,10.8-21.9,16.5c-1.7,1.4-3,3.3-4.7,4.8
	c-17.1,14.9-34.2,29.8-51.4,44.6c-28.9,24.8-57.7,49.6-86.8,74c-79.6,66.8-159.4,133.4-239.2,200c-15.7,13.1-32,25.5-48,38.2
	c-11.3,8.9-22.7,17.7-34,26.5c-1.4,1.1-3.1,2-5.7,2c0.8-1.4,1.4-3,2.5-4.1c17.4-16.4,35.1-32.6,52.3-49.2
	c17.4-16.8,34.6-34,51.6-51.2c19.8-19.9,39.6-39.8,59-60.1c16.3-17.1,32.2-34.6,47.7-52.4c15.7-18.1,30.9-36.6,46-55.2
	c25.4-31.4,47.4-65.1,67.7-99.9c5.9-10.1,10.7-20.7,14.8-32.3c-1.8,1-3.7,1.7-5.2,2.9c-14.4,11.2-28.5,22.6-43.1,33.6
	c-16.6,12.5-33.4,24.6-50.2,36.7c-20.2,14.5-40.3,29.3-60.9,43.1c-30.8,20.6-61.9,40.7-95.8,55.9c-3.7,1.6-7.9,2-11.9,3c0,0,0,0,0,0
	c9.3-7.2,18.6-14.4,27.9-21.7c10.8-8.5,21.7-16.8,32.1-25.8c9.4-8.1,18.1-17.1,27.2-25.6c20.5-19.2,39.7-39.7,58.7-60.4
	c31.3-34.2,60.8-69.9,89.2-106.5c29.3-37.9,58-76.3,86.5-114.7c24.2-32.6,50.2-63.6,78.2-93.1c19.8-21,41.4-39.9,63.7-58
	c16-12.9,33.4-23.5,52.4-31.4c7.1-2.9,14.1-6.1,21.1-9.2c5.3,4.9,10.7,9.7,16,14.6c-2.7,1-5.6,1.6-8.1,3
	c-14.7,8.4-29.6,16.5-43.7,25.8c-9.8,6.4-19,14-27.5,22.2c-15,14.5-26.5,31.9-38.5,48.8c-21.9,30.7-43.8,61.4-66.1,91.8
	c-12.6,17.3-25.6,34.4-39.2,50.9c-13.4,16.2-27.6,31.9-42.1,47.1c-11.9,12.5-24.4,24.4-39.2,33.6c-4.5,2.8-8.7,6.1-13.1,9.1
	c2.6,1,4.8,1,6.6,0.2c9.3-4.3,18.8-8.2,27.6-13.3c31.8-18.5,61.2-40.6,90.4-62.8c18.9-14.3,37.1-29.4,55.6-44.1c1.3-1,2.4-2.2,3.7-3
	c1.4-0.9,3-1.4,4.6-2.1c-2.4,7.8-5.8,14.5-9.9,20.8c-12.3,19.1-24.6,38.1-37.2,57c-11.7,17.5-23.5,35.1-35.8,52.2
	c-22,30.6-44.8,60.7-69.9,88.8c-14.5,16.2-29.7,31.7-44.5,47.5c-5,5.3-9.7,10.7-14.6,16.1c-0.3,0.3-0.6,0.6-1.2,1.2
	c0.7-0.5,1.1-0.7,1.4-0.9c1.5-0.5,3.2-0.7,4.4-1.5c11.4-8.1,23.1-16,34.1-24.7c14.6-11.5,28.7-23.5,42.9-35.4
	c9.6-8,19.3-15.8,28.6-24.2c17.8-16.1,35.2-32.4,52.8-48.7c13.4-12.4,26.9-24.5,40-37.2c18.9-18.1,37.4-36.6,56.1-54.9
	c2.1-2.1,4.8-3.7,8.8-6.7c-0.5,3.7-0.4,5.3-1,6.6c-12.2,27.1-24.5,54.1-36.9,81.1c-15.4,33.4-33.2,65.5-55.1,95.2
	c-3.3,4.5-6.1,9.3-9.9,15.1c5.1-0.4,7-3,9.2-5c6.9-6.6,13.4-13.7,20.6-19.9c21.4-18.7,43-37.2,64.7-55.6
	c19.8-16.7,40-32.9,59.7-49.8c12.8-11,25.3-22.5,37.1-34.7c24.1-24.9,44.9-52.3,61.4-82.9
	C1002.3,1202.4,1016.2,1169.4,1021.4,1133.1z M725.9,1491.6c0.2-0.2,0.3-0.5,0.5-0.7C726.2,1491.1,726.1,1491.4,725.9,1491.6
	c-0.1,0.3-0.3,0.5-0.5,0.7C725.6,1492.1,725.8,1491.8,725.9,1491.6z M730.3,1486.4c0.3-0.3,0.6-0.6,1.8-1.7c-1.3,1-1.6,1.3-1.9,1.5
	c-0.1,0.3-0.3,0.6-0.4,0.9C729.9,1486.9,730.1,1486.6,730.3,1486.4z"/>
<path class="st2" d="M437.9,1558.7c1.8-1.5,3.6-2.9,5.8-4.7c1.2,3.8,0,5.2-2.6,5.8C440,1559.4,439,1559,437.9,1558.7z"/>
<path class="st3" d="M586.2,1667.6c0.7-1.2,1.5-2.4,2.2-3.6c0.7,0.1,1.3,0.1,2,0.2C589,1665.3,587.6,1666.5,586.2,1667.6
	L586.2,1667.6z"/>
<path class="st1" d="M590.5,1662.3c0.7-1.2,1.5-2.5,2.2-3.7c0,0,0.2,0.2,0.2,0.2C592.1,1659.9,591.3,1661.1,590.5,1662.3
	L590.5,1662.3z"/>
<path class="st3" d="M586.2,1667.7c-0.3,0.8-0.5,1.5-0.8,2.3c-0.3-0.2-0.5-0.4-0.8-0.6C585.1,1668.8,585.6,1668.2,586.2,1667.7
	C586.2,1667.6,586.2,1667.7,586.2,1667.7z"/>
<g>
	<path class="st2" d="M65.9,1725.3c-0.1,1.2-0.2,2.4-0.4,3.6c-2.6,0.5-5.3,1.1-7.9,1.6c-0.2-0.6-0.4-1.3-0.6-1.9
		C60,1727.5,63,1726.4,65.9,1725.3z"/>
	<g>
		<path class="st2" d="M1071.2,1179.1c-3.2,18.4-9,36-18.1,52.3c-36.5,65.5-76.8,128.3-124.8,186.1
			c-36.3,43.7-76.7,83.3-120.6,119.2c-36.4,29.8-73.2,59-110.2,88.1c-112.5,88.4-215.3,187-310.2,294c-2.8,3.1-5.6,6.2-8.4,9.2
			c-1.7-0.2-3.5-0.5-5.2-0.7c39.6-75.6,84.6-148.1,132.5-218.7c34.5-50.7,70-100.7,105.1-151.1c2.2-3.1,4.1-6.4,6.2-9.6
			c0,0-0.2,0.1-0.2,0.1c2.7-0.7,3.9-2.1,2.5-5.7c-1.5,1.4-2.7,2.5-3.9,3.6c-0.7-0.2-1.1,0.1-1.3,0.9c-77.4,68.3-156,135.2-236,200.5
			c-62.4,51-125.3,101.2-191.1,147.8c-26.6,18.8-54.2,36.2-81.4,54.1c-6.1,4-12.8,7.2-19.2,10.8c-0.4-0.5-0.8-1-1.2-1.5
			c35.9-31.8,70.7-64.7,104.1-99c89.2-91.8,170.5-190.2,246.8-292.9c0.9-1.3,1.7-2.7,2.5-4c0.7-0.9,1.3-1.8,2-2.7
			c2.6-0.6,3.8-2,2.6-5.8c-2.2,1.8-4,3.2-5.8,4.7c-0.4,0.3-0.8,0.7-1,1.2c-21.3,14-42.4,28.4-64,42.1
			c-57.8,36.7-117.8,69.1-181.8,93.7c-40.6,15.6-82.3,27.5-125.5,33.3c0.1-1.2,0.2-2.4,0.4-3.6c46.5-20,91.4-43,134.3-69.8
			c94-58.8,174-133,243.3-219.2c34.3-42.7,66-87.2,95.7-133.1c56.7-87.8,128.7-161.1,211.4-224.4c28.7-22,58.7-42.2,91.9-57.1
			c13.4-6,27.2-11.1,40.8-16.6c3,2.7,5.9,5.4,8.9,8c-7,3.1-14,6.3-21.1,9.2c-19,7.9-36.4,18.5-52.4,31.4c-22.4,18.1-43.9,37-63.7,58
			c-27.9,29.5-54,60.5-78.2,93.1c-28.5,38.5-57.2,76.9-86.5,114.7c-28.4,36.6-57.9,72.3-89.2,106.5c-19,20.7-38.2,41.1-58.7,60.4
			c-9.1,8.5-17.8,17.4-27.2,25.6c-10.4,9-21.3,17.3-32.1,25.8c-9.2,7.3-18.6,14.5-27.9,21.7c-0.2,0.3-0.3,0.5-0.5,0.8
			c0.2-0.3,0.3-0.5,0.5-0.8c4-1,8.2-1.3,11.9-3c34-15.2,65.1-35.3,95.8-55.9c20.7-13.8,40.7-28.6,60.9-43.1
			c16.8-12.1,33.6-24.3,50.2-36.7c14.5-11,28.7-22.4,43.1-33.6c1.6-1.2,3.5-2,5.2-2.9c-4.1,11.5-8.9,22.2-14.8,32.3
			c-20.3,34.8-42.4,68.5-67.7,99.9c-15,18.6-30.3,37.1-46,55.2c-15.5,17.8-31.4,35.3-47.7,52.4c-19.4,20.3-39.2,40.2-59,60.1
			c-17.1,17.2-34.2,34.4-51.6,51.2c-17.2,16.6-34.9,32.8-52.3,49.2c-1.1,1.1-1.7,2.7-2.5,4.1c2.6,0,4.3-0.9,5.7-2
			c11.4-8.8,22.7-17.6,34-26.5c16.1-12.7,32.3-25.1,48-38.2c79.8-66.5,159.6-133.2,239.2-200c29.1-24.4,57.9-49.3,86.8-74
			c17.2-14.8,34.3-29.7,51.4-44.6c1.7-1.5,2.9-3.4,4.7-4.8c7.1-5.7,12.7-13.6,21.9-16.5c0,0,0.3,0.4,0.3,0.4
			c-1.5,2.8-2.8,5.7-4.6,8.3c-5.9,8.7-12.1,17.2-18,25.9c-19.9,29.3-39.9,58.5-59.5,87.9c-15.9,23.9-31.4,48.1-46.9,72.2
			c-15.9,24.7-31.6,49.5-47.3,74.3c-1.5,2.4-2.6,5.1-3.8,7.6c-0.7,1.2-1.5,2.5-2.2,3.7c-0.7,0.6-1.5,1.1-2.2,1.7
			c-0.7,1.2-1.5,2.4-2.2,3.6c-0.5,0.6-1,1.2-1.5,1.8c0.3,0.2,0.5,0.4,0.8,0.6c0.3-0.8,0.5-1.5,0.8-2.3c1.4-1.2,2.7-2.4,4.1-3.5
			c0.1-0.6,0.2-1.3,0.2-1.9c0.8-1.2,1.6-2.3,2.4-3.5c1.8-1.2,3.9-2.1,5.3-3.6c22.2-24.6,43.9-49.8,68-72.7
			c18.5-17.6,36.4-35.9,55.7-52.5c24.5-21,50-40.8,75.2-61c6.7-5.4,13.8-10.3,20.8-15.4c15.7-11.5,31.9-22.3,47.1-34.5
			c17.9-14.4,35.4-29.4,52.4-44.9c23.5-21.4,42.9-46.3,60.3-72.9c16.2-24.6,30.1-50.5,42.5-77.2c10.2-22,20.6-44,26.3-67.7
			C1054.7,1163.9,1063,1171.5,1071.2,1179.1z M622.6,1541.1c-0.2-0.2-0.3-0.5-0.5-0.7c-0.2,0.2-0.6,0.3-0.6,0.5
			c0,0.2,0.3,0.4,0.4,0.7C622.2,1541.4,622.4,1541.2,622.6,1541.1z"/>
		<path class="st2" d="M614.6,1546.8c0.1-0.7,0.6-1,1.3-0.9c0.5,0.7,0.9,1.4,1.4,2c0,0,0.2-0.1,0.2-0.1
			C616.5,1547.5,615.6,1547.1,614.6,1546.8z"/>
		<path class="st2" d="M615.9,1545.9c1.2-1.1,2.4-2.2,3.9-3.6c1.4,3.6,0.1,5-2.5,5.7C616.8,1547.3,616.3,1546.6,615.9,1545.9z"/>
		<path class="st2" d="M622.6,1541.1c-0.2,0.2-0.4,0.3-0.6,0.5c-0.2-0.2-0.5-0.5-0.4-0.7c0-0.2,0.4-0.4,0.6-0.5
			C622.3,1540.6,622.5,1540.8,622.6,1541.1z"/>
	</g>
</g>
<path class="st4" d="M437.9,1558.7c1.1,0.4,2.1,0.7,3.2,1.1c-0.7,0.9-1.3,1.8-2,2.7c-0.7-0.9-1.5-1.7-2.2-2.6
	C437.2,1559.4,437.5,1559,437.9,1558.7z"/>
<path class="st1" d="M355.2,1559.5c-0.2,0.3-0.3,0.5-0.5,0.8C354.9,1560,355,1559.7,355.2,1559.5
	C355.2,1559.4,355.2,1559.5,355.2,1559.5z"/>
<path class="st1" d="M590.4,1664.1c-0.7-0.1-1.3-0.1-2-0.2c0.7-0.6,1.5-1.1,2.2-1.7l0,0C590.6,1662.9,590.5,1663.5,590.4,1664.1z"/>
<path class="st4" d="M1247.4,1162.5c-56.6-52.5-113.1-104.8-170.3-157.8c54.3-58.6,108.3-116.9,162.9-175.7
	c-6.7-8.6-15-14.5-22.8-22.4c-19.3,19.6-36.8,39.3-54.9,58.6c-18.1,19.4-36.1,38.9-54.2,58.4c-18,19.5-36.1,38.9-54.9,59.1
	c-56.9-52.8-113.5-105.3-170.3-158c0.8-2.4,1.3-4.6,2.1-6.6c41.1-98.8,90.4-193.2,151-281.6c57.2-83.5,123.2-159.3,199.7-225.7
	c71.5-62,149.8-113.5,235.4-153.8c2.3-1.1,4.6-2.2,7-3.2c0.6-0.2,1.2-0.3,3.1-0.6c129.4,121.3,259.3,243,389.6,365.3
	c-0.7,2.3-1.2,4.8-2.1,7.1c-40.6,107.1-98.5,204-171.5,292.1c-70,84.6-151.1,157.1-240.5,220.5c-64.8,46-133.1,86.2-204,122
	C1251.3,1161,1249.5,1161.6,1247.4,1162.5z M1592.6,595.3c7.4-81-51.8-152.1-132.4-159.3c-80.6-7.2-151.7,52.3-159,132.9
	c-7.2,79.4,52.5,151.6,131.1,158.7C1514.1,735,1585.2,676.3,1592.6,595.3z"/>
<path class="st5" d="M1491.8,147.6c66.1-29.6,134.6-51.5,205.6-65.9c75.7-15.4,152.1-22.8,229.6-17.9c2.9,11.5,3.4,22.3,3.6,33.1
	c0.5,32.9,0.7,65.9,1.3,98.8c0.5,25.9,1,51.8-2.2,77.6c-3.8,30.8-9,61.3-14.9,91.8c-7.3,37.7-16.6,74.9-28.4,111.4
	c-3,9.3-6.3,18.6-9.3,27.3c-1.4,0.3-1.7,0.4-2,0.4c-0.3,0-0.7,0-0.9-0.2c-4.1-3.6-8.2-7.2-12.1-10.9
	c-123.1-114.2-246.1-228.5-369.2-342.8C1492.4,150,1492.4,149.3,1491.8,147.6z M1855.4,445.1c2.5-6.7,5-12.3,6.7-18
	c6.5-21.3,12.9-42.6,19.1-64c2.6-9.2,4.6-18.5,6.6-27.8c1.8-8.7,3.1-17.5,4.7-26.3c2.4-13.4,5.6-26.8,7.2-40.3
	c3.5-29.1,5.9-58.4,4.5-87.8c-0.8-18.1-2-36.2-3.4-54.2c-0.5-6.4-2.2-12.8-3.3-19.2c-2.6,2.7-3.7,5.3-4.6,8
	c-4.1,13.4-7.8,26.9-12.3,40.1c-10.6,31.4-21.8,62.6-36.6,92.4c-13,26.4-27.7,51.9-48.3,73.1c-8.1,8.4-18.1,15.1-27.8,21.7
	c-4.5,3.1-10.3,4.1-16,6.2c1,1.7,1.6,3.2,2.7,4.2c31.9,29.8,63.8,59.5,95.8,89.1C1851.5,443.4,1853.1,443.9,1855.4,445.1z
	 M1537.2,136.6c0.1,0.6,0.2,1.1,0.4,1.7c6.8-0.4,13.7-0.5,20.5-1.3c50.9-5.2,101.8-10.1,152.5-16c49.5-5.7,98.9-12.5,147.8-22.6
	c14-2.9,27.8-7,41.7-10.9c4.5-1.3,9.1-2.9,11.6-7.7c-2.2-4.5-6.4-5.3-10.3-6.4c-16.8-4.8-34.1-5.7-51.3-5.7
	c-30.5,0-60.6,3.6-90.5,8.9c-74.1,13.1-146.3,33.6-217.4,58C1540.4,135.1,1538.8,135.9,1537.2,136.6z"/>
<path class="st6" d="M567.2,1517.3c4.9-5.4,9.7-10.8,14.6-16.1c14.8-15.8,30.1-31.3,44.5-47.5c25.2-28.1,47.9-58.2,69.9-88.8
	c12.3-17.1,24.1-34.6,35.8-52.2c12.6-18.9,25-37.9,37.2-57c4.1-6.3,7.5-13,9.9-20.8c-1.5,0.7-3.2,1.3-4.6,2.1c-1.4,0.8-2.5,2-3.7,3
	c-18.5,14.7-36.7,29.8-55.6,44.1c-29.3,22.1-58.7,44.2-90.4,62.8c-8.8,5.1-18.3,9-27.6,13.3c-1.8,0.8-4,0.8-6.6-0.2
	c4.4-3,8.6-6.3,13.1-9.1c14.8-9.2,27.4-21.1,39.2-33.6c14.5-15.3,28.7-30.9,42.1-47.1c13.6-16.5,26.6-33.6,39.2-50.9
	c22.3-30.4,44.2-61.1,66.1-91.8c12.1-16.9,23.6-34.3,38.5-48.8c8.4-8.2,17.7-15.7,27.5-22.2c14.1-9.3,29-17.4,43.7-25.8
	c2.4-1.4,5.4-2,8.1-3c18.4,16.8,36.8,33.6,56.1,51.2c-57.3,61.9-114.3,123.2-171.7,185.2c6.4,8.5,14.6,14.5,22.6,22
	c3.1-3,5.8-5.5,8.4-8.2c52-56,104-112.1,156-168.1c2.6-2.8,5.3-5.4,8.6-8.8c11.4,11,22.4,21.5,33.4,32.1
	c-5.2,36.2-19.1,69.3-36.4,101.2c-16.5,30.6-37.3,58-61.4,82.9c-11.7,12.1-24.3,23.6-37.1,34.7c-19.6,16.9-39.9,33.1-59.7,49.8
	c-21.7,18.4-43.3,36.9-64.7,55.6c-7.2,6.3-13.7,13.3-20.6,19.9c-2.2,2.1-4.1,4.7-9.2,5c3.8-5.8,6.6-10.6,9.9-15.1
	c21.9-29.7,39.6-61.8,55.1-95.2c12.4-27,24.7-54,36.9-81.1c0.6-1.3,0.5-2.9,1-6.6c-4,3-6.7,4.6-8.8,6.7
	c-18.7,18.3-37.3,36.7-56.1,54.9c-13.1,12.6-26.6,24.8-40,37.2c-17.6,16.3-35,32.6-52.8,48.7c-9.2,8.4-19,16.2-28.6,24.2
	c-14.3,11.9-28.4,23.9-42.9,35.4c-11,8.7-22.7,16.6-34.1,24.7c-1.2,0.9-2.9,1-4.4,1.5L567.2,1517.3z"/>
<path class="st5" d="M536.4,930.4c9.8-16.1,19.4-32.3,29.6-48.1c34.8-53.7,71.7-105.8,114.2-153.7c29.3-33.1,60.6-64.1,96.4-90.2
	c27.3-19.9,56.4-36.4,89.2-45.5c26.7-7.4,53.5-8.5,80.3-0.5c13.3,4,24.5,10.4,31.6,18.1c-15.9,29.2-31.8,58.6-47.8,88
	c-2.9-1.2-6.1-1.9-8.7-3.6c-13.7-9.2-29.4-10.7-45.1-10.3c-15.4,0.4-30.2,4.9-44.6,10.3c-23.7,8.9-45.8,21.1-66.9,35
	c-15.7,10.3-30.8,21.6-46,32.7c-8.5,6.2-16.8,12.7-25.1,19.2c-2.5,2-4.9,4.1-7.3,6.2c-4.2,3.9-8.2,8-12.5,11.8
	c-13.9,12.3-28,24.2-41.7,36.7c-12.4,11.4-24.3,23.4-36.4,35.3c-9.3,9.2-18.6,18.4-27.7,27.7c-8.2,8.5-16,17.3-24.2,25.8
	C541.9,927.4,539,928.7,536.4,930.4z"/>
<path class="st7" d="M879.1,832.8c56.7,52.6,112.2,104,168.5,156.2c-25.8,27.8-51.1,55.1-76.3,82.4c-6.6-3.6-127.3-115-134.3-123.9
	C849.2,909.7,863.2,872,879.1,832.8z"/>
<path class="st7" d="M1238.4,1167.5c-36.8,18.2-73.3,34.9-111.2,50.6c-44.4-41.1-88.6-82.1-133.5-123.7
	c25.9-27.9,51.2-55.2,76.4-82.4C1077,1015.9,1231.1,1158.2,1238.4,1167.5z"/>
<path class="st5" d="M1210.8,1485c-20.1,14.7-40.2,29.4-60.2,44.1c-0.6-0.8-1.3-1.6-1.9-2.3c18.1-22.8,36.4-45.4,54.2-68.4
	c35.9-46.6,70-94.6,100-145.3c17.1-28.9,32.4-58.8,42.8-90.9c4.5-13.8,6.1-28.1,7.6-42.4c6.8-2.6,13.7-4.8,20.3-7.9
	c26-12.2,51.8-24.7,77.8-37c1.6-0.7,3.5-0.7,6.4-1.1c0.2,3.4,0.6,6.1,0.6,8.8c-0.3,18.1-4.8,35.3-11.7,51.9
	c-10.7,25.7-24.1,49.9-40,72.9c-14.9,21.5-30.4,42.5-47.7,62.1c-11.8,13.4-23.1,27.1-34.9,40.5c-7.8,8.8-16.1,17.3-24.3,25.7
	c-8.2,8.4-16.6,16.7-25,25c-10,9.8-19.8,19.8-30,29.4c-9.8,9.2-19.9,18-30,26.8C1212.1,1479,1210.3,1481.4,1210.8,1485z"/>
<path class="st8" d="M1210.8,1485c-0.5-3.6,1.3-6,3.8-8.2c10.1-8.8,20.2-17.6,30-26.8c10.2-9.6,20.1-19.6,30-29.4
	c8.4-8.3,16.8-16.5,25-25c8.2-8.4,16.5-16.9,24.3-25.7c11.8-13.3,23.1-27.1,34.9-40.5c17.3-19.6,32.8-40.6,47.7-62.1
	c15.9-22.9,29.3-47.2,40-72.9c6.9-16.6,11.5-33.8,11.7-51.9c0-2.7-0.4-5.4-0.6-8.8c-2.9,0.5-4.8,0.4-6.4,1.1
	c-25.9,12.3-51.8,24.8-77.8,37c-6.6,3.1-13.5,5.3-20.3,7.9c-0.5-3.5-0.9-7-1.6-10.4c-2.6-13.5-8.9-24.5-21-31.7
	c-1.9-1.1-3.8-2.3-6.3-3.9c2-1.7,3.4-3.3,5.2-4.4c41.4-23.6,81.9-48.6,121-75.8c1-0.7,2.3-1.1,4.3-2c3.2,3.8,6.8,7.5,9.5,11.6
	c12.2,18.3,18,38.6,19,60.5c1.7,38-10.3,72.4-27.1,105.5c-16.1,31.8-36.9,60.5-59.9,87.7c-45.8,54.3-98.5,101.1-154.1,145
	c-7.8,6.1-15.6,12.3-23.4,18.3C1216.3,1481.9,1213.5,1483.3,1210.8,1485z"/>
<path class="st5" d="M1217.4,811.5c6.2,5.7,12,11,18.5,17c-140.3,151.2-280,301.9-420.5,453.4c-3.5-3.1-6.6-5.8-9.5-8.6
	c-2.8-2.6-5.5-5.2-8.1-7.8C802,1257.9,1196.2,831.6,1217.4,811.5z"/>
<path class="st8" d="M536.4,930.4c2.5-1.7,5.5-3,7.6-5.2c8.2-8.5,16-17.3,24.2-25.8c9.1-9.4,18.3-18.6,27.7-27.7
	c12-11.8,23.9-23.8,36.4-35.3c13.6-12.5,27.8-24.5,41.7-36.7c4.3-3.8,8.3-7.9,12.5-11.8c2.4-2.2,4.8-4.3,7.3-6.2
	c8.3-6.4,16.6-13,25.1-19.2c15.2-11,30.3-22.3,46-32.7c21.1-13.9,43.2-26.1,66.9-35c14.4-5.4,29.2-9.9,44.6-10.3
	c15.7-0.4,31.3,1.1,45.1,10.3c2.6,1.7,5.8,2.4,8.7,3.6c-7.4,15.4-14.9,30.9-22.7,47.2c-1.9-1.9-3.2-2.8-4-4
	c-11.6-17.1-28.5-21.7-47.8-20c-19.4,1.7-37.2,8.8-54.7,17c-27.3,12.9-52.7,29-77.2,46.4c-62.4,44.4-120.1,94.5-175.6,147
	c-6.3,5.9-12.5,11.9-18.8,17.8c-1.6,1.5-3.4,2.6-5.7,3.4C526.4,944.8,531.5,937.6,536.4,930.4z"/>
<path class="st8" d="M1148.7,1526.7c0.6,0.8,1.3,1.6,1.9,2.3c-2,1.7-4.1,3.4-6.1,5C1144.2,1530.3,1146.1,1528.3,1148.7,1526.7z"/>
<path class="st1" d="M775,1378.6c-0.7,1.3-1.4,2.5-2.1,3.8c0,0-0.3-0.3-0.3-0.4C773.3,1380.8,774.1,1379.7,775,1378.6L775,1378.6z"
	/>
<path class="st1" d="M730.1,1486.2c0.3-0.2,0.6-0.5,1.9-1.5c-1.2,1.1-1.5,1.4-1.8,1.7L730.1,1486.2z"/>
<path class="st1" d="M730.3,1486.4c-0.2,0.2-0.4,0.5-0.6,0.7c0.1-0.3,0.3-0.6,0.4-0.9C730.1,1486.2,730.3,1486.4,730.3,1486.4z"/>
<path class="st2" d="M775,1378.5c0.3-0.2,0.5-0.5-0.3,0.3C775.6,1378.1,775.3,1378.3,775,1378.5C775,1378.6,775,1378.5,775,1378.5z"
	/>
<path class="st1" d="M725.9,1491.6c0.1-0.2,0.3-0.5,0.4-0.7C726.2,1491.1,726.1,1491.4,725.9,1491.6L725.9,1491.6z"/>
<path class="st1" d="M725.9,1491.6c-0.2,0.2-0.3,0.5-0.5,0.7C725.6,1492.1,725.8,1491.9,725.9,1491.6
	C725.9,1491.6,725.9,1491.6,725.9,1491.6z"/>
<path class="st6" d="M567.4,1517.6c-0.3,0.2-0.7,0.4-1.4,0.9c0.6-0.6,0.9-0.9,1.2-1.2C567.2,1517.3,567.4,1517.6,567.4,1517.6z"/>
<path class="st0" d="M1592.6,595.3c-7.4,81-78.5,139.7-160.3,132.4c-78.6-7.1-138.4-79.3-131.1-158.7c7.3-80.7,78.5-140.1,159-132.9
	C1540.8,443.2,1599.9,514.4,1592.6,595.3z M1308.5,568.5c-7.3,76.9,48.4,144.7,124.9,152c77.1,7.4,145.3-48.9,152.4-125.7
	c7.1-76.4-49.3-144.5-125.7-151.6C1383.4,436,1315.8,491.9,1308.5,568.5z"/>
<path class="st8" d="M1855.4,445.1c-2.3-1.2-3.9-1.7-5-2.7c-32-29.7-63.9-59.4-95.8-89.1c-1.1-1-1.6-2.6-2.7-4.2
	c5.7-2.1,11.5-3.2,16-6.2c9.7-6.6,19.7-13.3,27.8-21.7c20.7-21.2,35.3-46.7,48.3-73.1c14.7-29.8,26-61,36.6-92.4
	c4.5-13.3,8.2-26.8,12.3-40.1c0.8-2.7,2-5.3,4.6-8c1.1,6.4,2.8,12.8,3.3,19.2c1.4,18.1,2.5,36.1,3.4,54.2c1.4,29.4-1,58.6-4.5,87.8
	c-1.6,13.5-4.8,26.9-7.2,40.3c-1.6,8.8-2.9,17.6-4.7,26.3c-1.9,9.3-3.9,18.7-6.6,27.8c-6.1,21.4-12.6,42.7-19.1,64
	C1860.4,432.8,1858,438.4,1855.4,445.1z"/>
<path class="st4" d="M1537.2,136.6c1.6-0.7,3.2-1.4,4.9-2c71.1-24.3,143.3-44.8,217.4-58c29.9-5.3,60.1-9,90.5-8.9
	c17.3,0,34.5,0.9,51.3,5.7c3.9,1.1,8.1,1.9,10.3,6.4c-2.4,4.9-7.1,6.5-11.6,7.7c-13.8,3.9-27.6,8.1-41.7,10.9
	c-48.9,10-98.3,16.8-147.8,22.6c-50.8,5.9-101.7,10.8-152.5,16c-6.8,0.7-13.7,0.8-20.5,1.3C1537.5,137.7,1537.4,137.1,1537.2,136.6z
	"/>
<path class="st7" d="M1308.5,568.5c7.2-76.6,74.9-132.5,151.7-125.3c76.4,7.1,132.8,75.1,125.7,151.6
	c-7.1,76.8-75.4,133.1-152.4,125.7C1357,713.2,1301.3,645.4,1308.5,568.5z M1544.6,590.6c4.9-54.3-34.8-101.9-88.9-106.7
	c-53.9-4.8-101.7,35.2-106.6,89.3c-4.9,53.7,35.5,102.2,89.1,106.7C1492.5,684.5,1539.7,644.9,1544.6,590.6z"/>
<path class="st0" d="M1544.6,590.6c-4.9,54.3-52.1,93.9-106.4,89.3c-53.6-4.6-94-53-89.1-106.7c4.9-54,52.7-94,106.6-89.3
	C1509.8,488.7,1549.5,536.3,1544.6,590.6z M1438.6,669c48.1,4.6,90.9-30.5,95.6-78.2c4.8-48.6-30.4-91.4-78.8-96
	c-48.5-4.6-91.3,30.8-95.7,79.2C1355.4,622,1390.6,664.5,1438.6,669z"/>
<path class="st9" d="M1438.6,669c-48-4.6-83.2-47.1-78.9-95.1c4.4-48.4,47.2-83.8,95.7-79.2c48.4,4.6,83.6,47.5,78.8,96
	C1529.5,638.6,1486.7,673.6,1438.6,669z"/>
<g>
	<g>
		<path class="st2" d="M583.3,1666.9c0.2,0.9,0.4,1.8,0.8,2.7c0.6,1.4,2.3,1.4,2.9,0c0.5-1.2,0.8-2,1.9-2.8c0.7-0.5,1.4-0.9,2-1.5
			c1.2-1.2,1.8-2.8,2.5-4.3c0.7-1.8-2.2-2.6-2.9-0.8c-0.8,1.9-1.7,3.2-3.5,4.3c-1.7,1-2.1,2.6-2.8,4.4c1,0,1.9,0,2.9,0
			c-0.4-0.9-0.6-1.7-0.8-2.7C585.9,1664.2,583,1665,583.3,1666.9L583.3,1666.9z"/>
	</g>
</g>
<g>
	<g>
		<path class="st2" d="M593.7,1658.4c-1.2,0.4-2.4,0.5-3.5,1.2c-1.7,1-0.2,3.6,1.5,2.6c0.8-0.5,1.9-0.6,2.8-0.9
			C596.3,1660.7,595.5,1657.8,593.7,1658.4L593.7,1658.4z"/>
	</g>
</g>
<g>
	<g>
		<path class="st2" d="M435.8,1560.6c2.6-0.9,5.2-1.6,7.9-2c1.9-0.3,1.1-3.2-0.8-2.9c-2.7,0.4-5.3,1.1-7.9,2
			C433.2,1558.3,434,1561.2,435.8,1560.6L435.8,1560.6z"/>
	</g>
</g>
</svg>
