<?xml version="1.0" encoding="UTF-8" standalone="no"?>
<svg
   xmlns:dc="http://purl.org/dc/elements/1.1/"
   xmlns:cc="http://creativecommons.org/ns#"
   xmlns:rdf="http://www.w3.org/1999/02/22-rdf-syntax-ns#"
   xmlns:svg="http://www.w3.org/2000/svg"
   xmlns="http://www.w3.org/2000/svg"
   viewBox="0 0 990.00001 764.99999"
   height="8.5in"
   width="11in"
   version="1.1"
   id="svg3336">
  <metadata
     id="metadata3342">
    <rdf:RDF>
      <cc:Work
         rdf:about="">
        <dc:format>image/svg+xml</dc:format>
        <dc:type
           rdf:resource="http://purl.org/dc/dcmitype/StillImage" />
        <dc:title></dc:title>
      </cc:Work>
    </rdf:RDF>
  </metadata>
  <defs
     id="defs3340" />
  <path
     transform="scale(0.9375)"
     id="path901"
     d="M 178.50195 471.4082 L 233.47852 557.55469 L 120.23047 627.82031 L 226.33594 637.73438 L 160.36133 752.45117 L 160.35938 752.45508 L 160.35547 752.46094 L 160.36523 752.45312 L 275.08008 686.47656 L 284.99414 792.58398 L 355.25977 679.33398 L 441.4082 734.3125 L 425.62305 619.65039 C 419.819 621.02267 413.54899 620.89408 406.72656 618.61523 L 293.63086 505.51953 C 291.41425 498.88339 291.23269 492.77215 292.48633 487.10156 L 178.50195 471.4082 z "
     style="fill:#ffcc00;fill-opacity:1;fill-rule:evenodd;stroke:none;stroke-width:0.93875194px;stroke-linecap:butt;stroke-linejoin:miter;stroke-opacity:1" />
  <path
     id="path961"
     transform="scale(0.9375)"
     d="M 842.56055 26.232422 C 777.35242 26.254272 681.47471 51.533344 646.26367 76.486328 C 646.15103 76.566115 646.01511 76.662283 645.90234 76.742188 L 835.50391 266.3418 C 835.58647 266.23132 835.67918 266.09466 835.76172 265.98438 C 867.70639 223.28754 894.89367 80.651188 881.68164 30.566406 C 871.02269 27.566832 857.60858 26.227379 842.56055 26.232422 z M 782.61523 55.664062 L 855.81055 128.85938 C 849.12301 164.72635 837.64867 202.62176 825.23828 224.41016 L 687.94727 87.119141 C 709.82341 74.78281 746.89033 62.607209 782.61523 55.664062 z M 604.04297 106.29688 C 556.54248 108.19029 496.48159 120.71783 421.55273 152.90039 C 250.13592 226.52533 161.17971 344.15238 161.17969 344.15234 C 161.17969 344.15234 230.90015 334.21879 338.8125 408.80664 C 338.84674 408.61108 338.84925 408.4346 338.88477 408.23828 C 339.49295 404.88591 340.30135 401.42433 341.29883 397.86719 C 342.29629 394.31002 343.48272 390.65659 344.8457 386.91797 C 346.2087 383.17932 347.74839 379.3558 349.45312 375.45898 C 351.15786 371.56216 353.02613 367.59031 355.04883 363.55859 C 357.07153 359.52688 359.2495 355.43626 361.56641 351.29297 C 363.88331 347.14966 366.3404 342.95621 368.92773 338.72461 C 371.51507 334.493 374.23047 330.22239 377.06445 325.92578 C 379.89845 321.62918 382.84936 317.30511 385.90625 312.9668 C 388.96312 308.62849 392.12682 304.27663 395.38281 299.91992 C 401.8948 291.20651 408.78144 282.47926 415.94727 273.83203 C 423.11308 265.18478 430.55803 256.61737 438.1875 248.22266 C 445.81695 239.82795 453.63026 231.60618 461.5332 223.65039 C 469.41919 215.71171 477.3975 208.04154 485.42188 200.625 C 493.44626 193.20846 501.5164 186.0448 509.5918 179.11914 C 517.66719 172.19347 525.74619 165.50513 533.78516 159.03906 C 541.82413 152.573 549.82315 146.33073 557.73828 140.29297 C 565.65343 134.25522 573.48556 128.42198 581.18945 122.78125 C 588.89335 117.14054 596.46977 111.69097 603.875 106.41602 C 603.93399 106.3741 603.98405 106.33881 604.04297 106.29688 z M 810.22656 301.14062 C 808.51846 303.5182 807.0108 305.54272 805.27148 307.96289 C 794.65977 322.72843 783.45111 338.25541 771.45898 354.14648 C 765.4629 362.09202 759.27082 370.12824 752.85938 378.20703 C 746.44792 386.28583 739.81706 394.40625 732.94336 402.51953 C 726.06966 410.63282 718.9531 418.7381 711.57031 426.78711 C 704.18753 434.83612 696.53833 442.82886 688.59961 450.71484 C 680.64382 458.61779 672.42204 466.43109 664.02734 474.06055 C 655.63263 481.69001 647.06522 489.13692 638.41797 496.30273 C 629.77072 503.46856 621.04349 510.35519 612.33008 516.86719 C 607.97336 520.12317 603.61955 523.28492 599.28125 526.3418 C 594.94295 529.39867 590.61886 532.3496 586.32227 535.18359 C 582.02566 538.0176 577.757 540.73494 573.52539 543.32227 C 569.29379 545.9096 565.10035 548.3667 560.95703 550.68359 C 556.81372 553.0005 552.72115 555.17651 548.68945 557.19922 C 544.65774 559.22192 540.68588 561.09214 536.78906 562.79688 C 532.89225 564.50161 529.06872 566.04131 525.33008 567.4043 C 521.59144 568.76729 517.93801 569.9537 514.38086 570.95117 C 511.16131 571.85398 508.0488 572.54994 504.99609 573.13477 C 584.33804 684.09851 582.2793 762.56055 582.2793 762.56055 C 582.2793 762.56055 712.50379 653.14676 771.34375 501.42773 C 803.5023 418.50683 812.46352 352.44902 810.22656 301.14062 z M 334.71484 429.89648 C 334.05458 433.40426 333.39449 437.06754 332.73438 442.48633 C 312.4682 457.63299 283.99676 476.67668 293.63086 505.51953 L 406.72656 618.61523 C 435.56942 628.24936 454.61504 599.77985 469.76172 579.51367 C 475.76025 578.78294 480.00169 578.0529 483.69727 577.32227 C 478.85762 574.04392 473.98267 570.7367 468.69336 566.91602 C 464.15871 563.64047 459.47244 560.14973 454.69727 556.48633 L 419.11914 592.06445 L 395.09766 568.04297 L 428.23047 534.91016 C 427.03304 533.87203 425.83641 532.84216 424.63672 531.7832 C 421.21758 528.76519 417.79288 525.64987 414.37305 522.46484 L 381.94727 554.89062 L 357.92578 530.86914 L 390.32617 498.4707 C 386.85047 494.75715 383.43499 491.00736 380.0957 487.24023 C 379.33364 486.3806 378.59047 485.51742 377.83594 484.65625 L 344.77344 517.71875 L 320.75195 493.69727 L 356.0332 458.41602 C 351.27378 452.38527 346.73477 446.44264 342.45312 440.67578 C 339.65314 436.90454 337.29266 433.49464 334.71484 429.89648 z "
     style="opacity:1;fill:#d40000;fill-opacity:1;stroke:none;stroke-width:28.1625576;stroke-linecap:butt;stroke-linejoin:round;stroke-miterlimit:4;stroke-dasharray:none;stroke-dashoffset:0;stroke-opacity:1;paint-order:stroke fill markers" />
  <path
     id="path4149"
     transform="scale(0.9375)"
     d="M 384.30859 45.285156 L 352.75977 62.572266 L 320.1875 47.585938 L 326.48633 82.679688 L 302.2793 109.05664 L 337.70117 113.49414 L 355.45898 145.00586 L 370.88477 112.50781 L 405.90234 105.65625 L 379.71289 80.96875 L 384.30859 45.285156 z M 186.28516 64.21875 L 127.51367 94.064453 L 69.689453 65.109375 L 79.277344 129.10938 L 32.039062 175.41602 L 97.787109 185.37109 L 126.93945 242.86523 L 158.00781 184.81836 L 222.52539 173.95898 L 176.16992 128.34766 L 186.28516 64.21875 z "
     style="opacity:1;fill:#ffcc00;fill-opacity:1;stroke:none;stroke-width:0.42666668;stroke-linecap:square;stroke-linejoin:miter;stroke-miterlimit:4;stroke-dasharray:none;stroke-opacity:1" />
  <path
     id="path4153"
     transform="scale(0.9375)"
     d="M 907.93945 200.31641 L 914.73828 255.1875 L 875.08789 293.93945 L 928.68164 303.91406 L 953.04492 353.51953 L 979.39258 304.96875 L 1034.3223 297.63086 L 996.73242 257.53906 L 1006.1914 203.42383 L 956.51367 226.63672 L 907.93945 200.31641 z M 851.98438 419.56836 L 852.2832 463.43945 L 817.75195 490.12305 L 860.00195 502.20508 L 874.21094 543.67969 L 899.42773 507.69141 L 942.80273 506.62305 L 917.08789 471.79492 L 929.11328 430.12891 L 887.82812 444.09766 L 851.98438 419.56836 z M 1011.8652 631.40039 L 971.06445 653.83594 L 929.09766 634.96484 L 938.40625 679.88477 L 907.33984 714.06641 L 952.40039 719.53125 L 975.6582 759.81836 L 994.99023 717.66016 L 1040.418 708.7207 L 1006.543 677.02539 L 1011.8652 631.40039 z M 812.64648 645.42383 L 759.95508 672.12109 L 706.45898 646.38477 L 715.78906 705.16602 L 675.12305 747.63281 L 733.59766 756.59961 L 761.71875 808.87305 L 787.81836 756.5 L 846.14648 745.92188 L 804.08984 703.71484 L 812.64648 645.42383 z "
     style="opacity:1;fill:#ffcc00;fill-opacity:1;stroke:none;stroke-width:0.39319149;stroke-linecap:square;stroke-linejoin:miter;stroke-miterlimit:4;stroke-dasharray:none;stroke-opacity:1" />
  <path
     id="path884"
     transform="scale(0.9375)"
     d="M 645.90234 76.742188 C 593.53731 113.84067 524.62086 160.14084 461.5332 223.65039 C 398.30968 287.29669 340.79577 367.97038 337.67383 417.95898 C 336.68811 420.57091 335.7008 424.65845 334.71484 429.89648 C 337.29266 433.49464 339.65314 436.90454 342.45312 440.67578 C 347.96495 448.09957 353.89379 455.81149 360.18555 463.63281 C 366.47731 471.45414 373.13147 479.38378 380.0957 487.24023 C 383.5778 491.16846 387.13751 495.07821 390.76758 498.94727 C 394.39765 502.81633 398.09674 506.64557 401.86133 510.41016 C 405.62593 514.17475 409.41887 517.83951 413.2207 521.40234 C 417.02253 524.96518 420.83399 528.42661 424.63672 531.7832 C 432.24215 538.49641 439.81408 544.79091 447.20508 550.65234 C 454.59608 556.51379 461.80748 561.94207 468.69336 566.91602 C 473.98267 570.7367 478.85762 574.04392 483.69727 577.32227 C 488.32524 576.40731 491.86622 575.49127 494.29102 574.57617 C 544.27962 571.45424 624.95332 513.93837 688.59961 450.71484 C 752.10942 387.62695 797.07955 317.74143 835.50391 266.3418 L 645.90234 76.742188 z M 665.64844 194.3418 A 53.039483 53.039483 0 0 1 702.37891 209.87109 A 53.039483 53.039483 0 0 1 702.37891 284.87891 A 53.039483 53.039483 0 0 1 627.36914 284.87891 A 53.039483 53.039483 0 0 1 627.36914 209.87109 A 53.039483 53.039483 0 0 1 665.64844 194.3418 z M 572.05273 287.9375 A 53.039483 53.039483 0 0 1 608.7832 303.4668 A 53.039483 53.039483 0 0 1 608.7832 378.47461 A 53.039483 53.039483 0 0 1 533.77344 378.47461 A 53.039483 53.039483 0 0 1 533.77344 303.4668 A 53.039483 53.039483 0 0 1 572.05273 287.9375 z M 478.45703 381.5332 A 53.039483 53.039483 0 0 1 515.1875 397.0625 A 53.039483 53.039483 0 0 1 515.1875 472.07031 A 53.039483 53.039483 0 0 1 440.17773 472.07031 A 53.039483 53.039483 0 0 1 440.17773 397.0625 A 53.039483 53.039483 0 0 1 478.45703 381.5332 z "
     style="opacity:1;fill:#0044aa;fill-opacity:1;fill-rule:evenodd;stroke:none;stroke-width:0.93875194px;stroke-linecap:butt;stroke-linejoin:miter;stroke-opacity:1" />
  <path
     id="path867"
     transform="scale(0.9375)"
     d="M 664.09961 194.3418 A 53.039483 53.039483 0 0 0 627.36914 209.87109 A 53.039483 53.039483 0 0 0 627.36914 284.87891 A 53.039483 53.039483 0 0 0 702.37891 284.87891 A 53.039483 53.039483 0 0 0 702.37891 209.87109 A 53.039483 53.039483 0 0 0 664.09961 194.3418 z M 665.51172 203.72852 A 43.651964 43.651964 0 0 1 695.74023 216.50781 A 43.651964 43.651964 0 0 1 695.74023 278.24219 A 43.651964 43.651964 0 0 1 634.00781 278.24219 A 43.651964 43.651964 0 0 1 634.00781 216.50781 A 43.651964 43.651964 0 0 1 665.51172 203.72852 z M 570.50391 287.9375 A 53.039483 53.039483 0 0 0 533.77344 303.4668 A 53.039483 53.039483 0 0 0 533.77344 378.47461 A 53.039483 53.039483 0 0 0 608.7832 378.47461 A 53.039483 53.039483 0 0 0 608.7832 303.4668 A 53.039483 53.039483 0 0 0 570.50391 287.9375 z M 571.91602 297.32422 A 43.651964 43.651964 0 0 1 602.14453 310.10352 A 43.651964 43.651964 0 0 1 602.14453 371.83789 A 43.651964 43.651964 0 0 1 540.41211 371.83789 A 43.651964 43.651964 0 0 1 540.41211 310.10352 A 43.651964 43.651964 0 0 1 571.91602 297.32422 z M 476.9082 381.5332 A 53.039483 53.039483 0 0 0 440.17773 397.0625 A 53.039483 53.039483 0 0 0 440.17773 472.07031 A 53.039483 53.039483 0 0 0 515.1875 472.07031 A 53.039483 53.039483 0 0 0 515.1875 397.0625 A 53.039483 53.039483 0 0 0 476.9082 381.5332 z M 478.32031 390.91797 A 43.651964 43.651964 0 0 1 508.54883 403.69922 A 43.651964 43.651964 0 0 1 508.54883 465.43359 A 43.651964 43.651964 0 0 1 446.81641 465.43359 A 43.651964 43.651964 0 0 1 446.81641 403.69922 A 43.651964 43.651964 0 0 1 478.32031 390.91797 z "
     style="opacity:1;fill:#ffcc00;fill-opacity:1;stroke:none;stroke-width:28.1625576;stroke-linecap:butt;stroke-linejoin:round;stroke-miterlimit:4;stroke-dasharray:none;stroke-dashoffset:0;stroke-opacity:1;paint-order:stroke fill markers" />
</svg>
