<?xml version="1.0" encoding="UTF-8"?>
<!DOCTYPE svg PUBLIC "-//W3C//DTD SVG 1.1//EN" "http://www.w3.org/Graphics/SVG/1.1/DTD/svg11.dtd">
<!-- Creator: CorelDRAW -->
<svg xmlns="http://www.w3.org/2000/svg" xml:space="preserve" width="169.423mm" height="164.736mm" style="shape-rendering:geometricPrecision; text-rendering:geometricPrecision; image-rendering:optimizeQuality; fill-rule:evenodd; clip-rule:evenodd"
viewBox="0 0 169.423 164.736"
 xmlns:xlink="http://www.w3.org/1999/xlink">
 <defs>
  <style type="text/css">
   <![CDATA[
    .fil0 {fill:#1F1A17}
   ]]>
  </style>
 </defs>
 <g id="Layer_x0020_1">
  <metadata id="CorelCorpID_0Corel-Layer"/>
  <path class="fil0" d="M75.918 101.913c0.1395,-0.0986 -0.017,-0.4181 -0.4375,-0.2267 -4.0597,1.369 -7.7366,2.0233 -14.8629,1.4967 -7.0512,-0.5211 -10.1953,-4.8777 -13.3479,-7.2441 -0.2591,-0.1944 -1.0635,-0.712 -0.2473,0.2856 2.944,3.8619 6.2995,8.43 12.6797,9.05 5.0993,0.4955 11.4462,0.0076 16.2159,-3.3615zm17.6915 0c-0.1395,-0.0986 0.017,-0.4181 0.4375,-0.2267 4.0597,1.369 7.7366,2.0233 14.8629,1.4967 7.0512,-0.5211 10.1953,-4.8777 13.3479,-7.2441 0.2591,-0.1944 1.0635,-0.712 0.2473,0.2856 -2.944,3.8619 -6.2995,8.43 -12.6797,9.05 -5.0993,0.4955 -11.4462,0.0076 -16.2159,-3.3615zm-18.733 -27.5133c0.2062,0.2198 -0.0063,0.4545 -0.3524,0.1596 -5.4836,-3.1412 -15.1843,-6.0633 -24.3765,-3.3077 -4.3555,1.3056 -9.5818,4.1035 -13.7565,6.1116 -0.3432,0.165 -1.4083,0.5911 -0.3275,-0.3137 2.5252,-2.2848 5.7809,-4.1709 9.1505,-5.7711 4.0199,-1.9091 8.2799,-3.3233 12.7244,-3.3079 5.8402,0.0203 12.8242,2.045 16.938,6.4292zm-12.096 78.8377c14.4097,0.0766 28.8237,0.1533 43.2334,0.23 -0.1534,0 -0.3067,0 -0.46,0 -7.0515,3.7557 -14.1052,7.5125 -21.1567,11.2682 -7.2048,-3.8323 -14.4118,-7.6658 -21.6167,-11.4982zm-1.3798 -4.3694c15.3295,0 30.6635,0 45.993,0 0,0.0767 0,0.1533 0,0.23 -0.3067,0.9198 -0.6133,1.8398 -0.9199,2.7596 -14.8696,-0.0766 -29.7436,-0.1533 -44.6131,-0.23 -0.1534,-0.9197 -0.3067,-1.8398 -0.46,-2.7596zm33.4034 -74.4683c-0.2062,0.2198 0.0063,0.4545 0.3524,0.1596 5.4836,-3.1412 15.1843,-6.0633 24.3765,-3.3077 4.3555,1.3056 9.5818,4.1035 13.7565,6.1116 0.3432,0.165 1.4083,0.5911 0.3275,-0.3137 -2.5252,-2.2848 -5.7809,-4.1709 -9.1505,-5.7711 -4.0199,-1.9091 -8.2799,-3.3233 -12.7244,-3.3079 -5.8402,0.0203 -12.8242,2.045 -16.938,6.4292zm-2.9839 -72.0103c24.1096,0.6248 36.0023,15.6619 39.9498,36.5554 1.5895,8.4131 2.1907,22.8703 4.3693,29.6064 4.6755,6.515 9.3524,14.0109 14.0278,20.5259 5.0821,8.0584 9.1964,16.4776 13.1718,25.8882 1.4579,3.4513 6.686,14.9215 6.0277,17.8052 -2.4237,4.5467 -8.9478,12.0529 -13.4503,15.4076 -0.0767,0 -0.1533,0 -0.23,0 -1.0639,-20.2136 -16.6447,-57.5841 -28.5157,-66.4598 -3.5868,-2.6819 -11.4773,-5.248 -17.9372,-3.9094 -10.8703,2.2524 -17.2882,18.7987 -24.168,18.6354 -5.6567,-0.1343 -8.5789,-5.9502 -10.7867,-8.7469 -6.5644,-8.3155 -20.6626,-14.628 -32.195,-5.9791 -11.8458,8.8837 -20.256,32.4057 -25.0663,48.5226 -1.2263,5.9784 -2.4531,11.9588 -3.6794,17.9372 -5.1735,-4.9818 -9.0642,-9.8473 -13.338,-15.6376 0.8217,-5.4465 3.2009,-10.2219 5.0592,-14.7178 4.9765,-14.4138 11.3079,-25.7783 19.5471,-37.0243 2.9892,-4.0623 5.9794,-8.1258 8.9686,-12.1881 2.6299,-8.391 2.0154,-21.5457 4.1394,-31.2753 4.3443,-19.9008 16.2626,-34.5952 40.0091,-34.9545l0.5682 64.0204 1.3706 -4.2587 -0.5556 -61.7336 0.0953 -0.1363c2.245,-0.4377 9.2048,-0.2632 11.15,-0.0629l0.0855 0.1581 -0.5559 61.7747 1.3706 4.2587 0.5681 -64.0115zm-16.3917 94.7365c-0.3832,-2.1461 -0.7665,-4.2929 -1.1498,-6.439 2.8182,3.01 6.2212,7.0265 10.5734,7.0895 1.7029,0.0246 3.5962,-0.8279 5.7541,-2.4902 1.5783,-1.411 2.913,-3.0664 4.3694,-4.5993 -0.3833,2.1461 -0.7666,4.2929 -1.1499,6.439 8.54,0.2787 24.8751,-1.3972 27.5958,-6.439 1.0714,-4.5391 -5.2441,-9.2792 -7.3589,-11.9581 7.935,0.5785 13.017,5.4839 16.7875,10.3483 9.6559,12.4572 19.2262,34.6831 21.8467,53.5819 -0.0767,0 -0.1533,0 -0.23,0 -7.5114,-3.4051 -20.5958,-7.8669 -31.7352,-4.8293 -1.303,4.2157 -2.6064,8.4325 -3.9094,12.6481 -2.406,-0.0371 -3.0211,-0.8322 -5.0592,-1.1498 -0.8432,0.6131 -1.6865,1.2265 -2.5296,1.8397 0.2864,-1.222 0.6239,-1.9922 1.6097,-2.5296 1.0501,-0.9775 2.2759,-0.5959 3.4495,0 2.836,-9.4277 6.478,-20.9321 9.3139,-30.3597 -0.4629,-0.4637 -10.6281,25.3555 -11.6136,27.8301 -7.3581,-7.2815 -14.7675,-14.4424 -22.1256,-21.7239l-0.1094 -0.1228 0.0003 -0.0065c0.0191,-0.5985 -0.0299,-1.7775 -0.0299,-2.5293 0,-2.9162 -2.1976,-5.2812 -4.9075,-5.2812 -2.7099,0 -4.8153,2.3665 -4.9076,5.2812l-0.0802 2.5328 -0.0876 0.0983c-7.4347,7.4347 -15.0493,14.3166 -22.4841,21.7514 -1.7047,-4.2812 -11.7356,-28.3948 -11.7356,-28.3181 2.836,9.4276 6.6,21.42 9.436,30.8477 0.8431,-0.23 1.6865,-0.46 2.5296,-0.6899 1.3313,0.9331 2.0359,1.4016 2.5296,3.2195 -0.8431,-0.6132 -1.6865,-1.2266 -2.5296,-1.8397 -2.0023,-0.3602 -3.6973,2.4158 -5.2892,0.4599 -1.3797,-3.9857 -2.7598,-7.9725 -4.1394,-11.9582 -9.3306,-3.9779 -25.1606,2.7051 -31.5052,4.8293 0.3407,-4.6132 2.0222,-8.615 3.2195,-12.4181 5.1429,-16.3352 10.3804,-30.7666 19.777,-42.5435 3.2743,-4.1037 8.4822,-8.5258 15.3314,-8.9492l-0.1537 0.2105c-2.1537,3.2004 -7.659,6.9519 -6.8989,11.9581 4.7648,5.2927 17.6639,6.3078 27.5957,6.2091zm2.5494 6.6893c1.9455,-1.78 4.1045,-3.1752 7.0272,-3.1964 2.8588,0.1158 5.1199,1.3481 6.8076,3.2208 -4.8231,-2.1674 -9.1827,-2.0861 -13.8348,-0.0244zm1.7818 2.8124c1.4443,-1.3215 3.0472,-2.3574 5.2171,-2.3731 2.1225,0.086 3.8012,1.0009 5.0541,2.3912 -3.5807,-1.6091 -6.8174,-1.5488 -10.2712,-0.0181zm18.607 40.4007c1.3031,0 2.6065,0 3.9095,0l-0.0029 -7.1672 -3.9066 -3.6862c0,3.7557 0,7.0977 0,10.8534zm-7.9192 0c1.3796,0 2.7597,0 4.1393,0 0,-4.7521 0,-9.5057 0,-14.2578 -1.3796,-1.303 -2.7597,-2.6064 -4.1393,-3.9094 0,6.0552 0,12.1121 0,18.1672zm-8.2021 -19.7748l4.9971 -0.0022c0,6.5917 0,13.1854 0,19.777 -1.6862,0 -3.3729,0 -5.0591,0 0,-6.6683 0.062,-13.1064 0.062,-19.7748zm-3.267 19.7748c-1.3796,0 -2.7597,0 -4.1393,0 0,-4.7521 0,-9.5057 0,-14.2578 1.3796,-1.303 2.7597,-2.6064 4.1393,-3.9094 0,6.0552 0,12.1121 0,18.1672zm-7.9191 0c-1.3031,0 -2.6065,0 -3.9095,0l0.0029 -7.1672 3.9066 -3.6862c0,3.7557 0,7.0977 0,10.8534zm51.5193 -40.3939c-1.9162,1.3797 -5.7605,3.3697 -7.6767,4.7494 -6.1595,-1.2048 -16.9622,-3.2707 -21.3867,1.3797 0.1532,0.3067 0.3066,0.6133 0.4598,0.9199 7.1964,1.5014 11.6719,6.9971 13.798,13.5679 0.7664,2.9126 1.5332,5.8261 2.2996,8.7387 0.2732,0.939 0.4366,1.4414 0.4504,-0.0122 -0.6535,-8.5814 -2.8981,-16.7942 -8.2692,-20.6846 -1.7629,-0.8432 -3.5263,-1.6866 -5.2891,-2.5297 5.9522,-1.0528 12.4413,-1.2439 17.9372,0.69 1.1505,-0.8051 7.977,-6.7144 7.6767,-6.8191zm-75.9029 0c1.9162,1.3797 5.7605,3.3697 7.6767,4.7494 6.1595,-1.2048 16.9622,-3.2707 21.3867,1.3797 -0.1532,0.3067 -0.3066,0.6133 -0.4598,0.9199 -7.1964,1.5014 -11.6719,6.9971 -13.798,13.5679 -0.7664,2.9126 -1.5332,5.8261 -2.2996,8.7387 -0.2732,0.939 -0.4366,1.4414 -0.4504,-0.0122 0.6535,-8.5814 2.8981,-16.7942 8.2692,-20.6846 1.7629,-0.8432 3.5263,-1.6866 5.2891,-2.5297 -5.9522,-1.0528 -12.4413,-1.2439 -17.9372,0.69 -1.1505,-0.8051 -7.977,-6.7144 -7.6767,-6.8191zm66.4763 -27.2619c2.3002,3.7857 6.6054,6.9357 6.7541,11.0638 -2.5172,2.3978 -6.3297,3.3439 -10.0473,4.1972 -4.6164,1.0597 -9.7147,1.578 -14.4263,1.3824l1.0762 -5.9223c3.5679,-5.7694 9.2939,-8.8638 16.6433,-10.7211zm-56.8805 0c-2.3002,3.7857 -6.6054,6.9357 -6.7541,11.0638 2.5172,2.3978 6.3297,3.3439 10.0473,4.1972 4.6164,1.0597 9.7147,1.578 14.4263,1.3824l-1.0762 -5.9223c-3.5679,-5.7694 -9.2939,-8.8638 -16.6433,-10.7211z"/>
 </g>
</svg>
